<?xml version="1.0" encoding="utf-8" standalone="no"?><svg xmlns="http://www.w3.org/2000/svg" xmlns:xlink="http://www.w3.org/1999/xlink" width="66.5481330962662mm" height="75.81915163830328mm" viewBox="4314.1 3104.5 262 298.5"><title>pcb</title><style type="text/css">
path, polyline, polygon {stroke-linejoin:round;}
path, polyline, polygon, line {stroke-linecap:round;}
rect, circle, ellipse, polyline, polygon, line, path {shape-rendering:crispEdges;}
*[layerid="0"] {stroke:#FFFFFF; FILL:#FFFFFF;}*[layerid="1"] {stroke:#FF0000; fill:#FF0000;}*[layerid="2"] {stroke:#0000FF; fill:#0000FF;}*[layerid="3"] {stroke:#FFCC00; fill:#FFCC00;}*[layerid="4"] {stroke:#66CC33; fill:#66CC33;}*[layerid="5"] {stroke:#808080; fill:#808080;}*[layerid="6"] {stroke:#800000; fill:#800000;}*[layerid="7"] {stroke:#800080; fill:#800080;}*[layerid="8"] {stroke:#AA00FF; fill:#AA00FF;}*[layerid="9"] {display:none}*[layerid="10"] {stroke:#FF00FF; fill:#FF00FF;}*[layerid="11"] {stroke:#C0C0C0; fill:#C0C0C0;}*[layerid="12"] {stroke:#FFFFFF; fill:#FFFFFF;}*[layerid="13"] {stroke:#33CC99; fill:#33CC99;}*[layerid="14"] {stroke:#5555FF; fill:#5555FF;}*[layerid="15"] {stroke:#F022F0; fill:#F022F0;}*[layerid="16"] {stroke:#FFFFFF; FILL:#FFFFFF;}*[layerid="17"] {stroke:#FFFFFF; FILL:#FFFFFF;}*[layerid="18"] {stroke:#FFFFFF; FILL:#FFFFFF;}*[layerid="19"] {stroke:#66CCFF; fill:#66CCFF;}*[layerid="20"] {stroke:#FFFFFF; FILL:#FFFFFF;}*[layerid="21"] {stroke:#999966; fill:#999966;}*[layerid="22"] {stroke:#008000; fill:#008000;}*[layerid="23"] {stroke:#00FF00; fill:#00FF00;}*[layerid="24"] {stroke:#BC8E00; fill:#BC8E00;}*[fill="none"] {fill: none;}
*[stroke="none"] {stroke: none;}
g[c_partid="part_pad"] > * + circle {fill: #222222;}
g[c_partid="part_via"] > * + circle {fill: #222222;}
g[c_partid="part_pad"] > polyline:nth-of-type(2) {stroke: #222222;}g[c_partid="part_pad"][c_shape="ELLIPSE"]  polyline:nth-last-of-type(1) {stroke:#222222;}g[c_partid="part_pad"][c_shape="RECT"]  polyline:nth-last-of-type(1) {stroke:#222222;}g[c_partid="part_pad"][c_shape="POLYGON"]  polyline:nth-last-of-type(1) {stroke:#222222;}g[c_partid="part_pad"] > polygon[c_etype="pad_outer"], #gCurParts g[c_partid="part_pad"] > polygon[c_etype="pad_outer"] {stroke-linejoin: round;stroke-miterlimit: 100;}</style>
<rect x="4314.1" y="3104.5" width="262" height="298.5" fill="#000000" stroke="none"/><g importFlag="0"><g><polyline points="4325.5 3114.5 4326 3114.5 4564 3114.5 4564 3393 4326 3393 4326 3116 4326 3114.5" stroke-width="1" c_shapetype="line" stroke-linecap="round" fill="none" layerid="10" locked="0"/></g><g before-id="layer_10"><polyline points="4374.75 3191 4367.5 3191 4362.5 3196 4362.5 3227.5 4365.99 3230.99 4370.6 3230.99" stroke-width="3.937" c_shapetype="line" stroke-linecap="round" fill="none" layerid="2" locked="0"><title>U4_16
 width = 1.000 mm</title></polyline><polyline points="4542.5 3374 4542.5 3337.5 4522 3317 4406.24 3317 4390.29 3332.95" stroke-width="3.937" c_shapetype="line" stroke-linecap="round" fill="none" layerid="2" locked="0"/><polyline points="4370.6 3351.07 4380.03 3360.5 4482.53 3360.5 4495.53 3373.5" stroke-width="3.937" c_shapetype="line" stroke-linecap="round" fill="none" layerid="2" locked="0"><title>U2_1
 width = 1.000 mm</title></polyline><polyline points="4390.29 3332.95 4390.29 3342.01" stroke-width="3.937" c_shapetype="line" stroke-linecap="round" fill="none" layerid="2" locked="0"/><polyline points="4370.6 3342.01 4370.6 3351.07" stroke-width="3.937" c_shapetype="line" stroke-linecap="round" fill="none" layerid="2" locked="0"/><polyline points="4504.59 3373.5 4495.53 3373.5" stroke-width="3.937" c_shapetype="line" stroke-linecap="round" fill="none" layerid="2" locked="0"/><polyline points="4526.5 3373.5 4504.59 3373.5" stroke-width="3.937" c_shapetype="line" stroke-linecap="round" fill="none" layerid="2" locked="0"/><path d="M4370.19286,3155.16731L4370.19286,3144.83269L4365.37003,3148.0315L4365.37003,3151.9685Z" stroke-width="0" c_shapetype="line" type="solid" layerid="2" locked="0" c_teardrop="1" c_targetpad="gge1209" c_targetwire="gge1422"/><path d="M4379.30714,3175.66731L4379.30714,3165.33269L4383.5,3168.5315L4383.5,3172.4685Z" stroke-width="0" c_shapetype="line" type="solid" layerid="2" locked="0" c_teardrop="1" c_targetpad="gge1224" c_targetwire="gge1401"/><path d="M4370.19286,3196.16731L4370.19286,3185.83269L4367.5,3189.0315L4367.5,3192.9685Z" stroke-width="0" c_shapetype="line" type="solid" layerid="2" locked="0" c_teardrop="1" c_targetpad="gge1239" c_targetwire="gge1404"/><path d="M4449.47217,3377.43701L4449.47217,3369.56299L4443.56667,3371.5315L4443.56667,3375.4685Z" stroke-width="0" c_shapetype="line" type="solid" layerid="2" locked="0" c_teardrop="1" c_targetpad="gge138" c_targetwire="gge1401"/><path d="M4500.65381,3377.43701L4500.65381,3369.56299L4495.53418,3371.5315L4495.53418,3375.4685Z" stroke-width="0" c_shapetype="line" type="solid" layerid="2" locked="0" c_teardrop="1" c_targetpad="gge153" c_targetwire="gge1410"/><path d="M4508.52783,3369.56299L4508.52783,3377.43701L4514.43333,3375.4685L4514.43333,3371.5315Z" stroke-width="0" c_shapetype="line" type="solid" layerid="2" locked="0" c_teardrop="1" c_targetpad="gge153" c_targetwire="gge1407"/><path d="M4522.56299,3377.43701L4522.56299,3369.56299L4516.65749,3371.5315L4516.65749,3375.4685Z" stroke-width="0" c_shapetype="line" type="solid" layerid="2" locked="0" c_teardrop="1" c_targetpad="gge189" c_targetwire="gge1407"/><path d="M4538.56299,3370.06299L4546.43701,3370.06299L4544.4685,3364.15749L4540.5315,3364.15749Z" stroke-width="0" c_shapetype="line" type="solid" layerid="2" locked="0" c_teardrop="1" c_targetpad="gge204" c_targetwire="gge1425"/><path d="M4373.60254,3345.94922L4367.60254,3345.94922L4368.63355,3351.06909L4372.57055,3351.06909Z" stroke-width="0" c_shapetype="line" type="solid" layerid="2" locked="0" c_teardrop="1" c_targetpad="gge267" c_targetwire="gge1413"/><path d="M4387.2876,3338.0752L4393.2876,3338.0752L4392.25561,3332.948L4388.31861,3332.948Z" stroke-width="0" c_shapetype="line" type="solid" layerid="2" locked="0" c_teardrop="1" c_targetpad="gge297" c_targetwire="gge1419"/><path d="M4367.60254,3234.92529L4367.60254,3227.05127L4365.99023,3229.02149L4365.99023,3232.95849Z" stroke-width="0" c_shapetype="line" type="solid" layerid="2" locked="0" c_teardrop="1" c_targetpad="gge492" c_targetwire="gge1404"/><polyline points="4453.41 3373.5 4346.5 3373.5 4339 3366 4339 3143 4350 3132 4383.5 3132 4391 3139.5 4391 3163 4383.5 3170.5 4374.75 3170.5" stroke-width="3.937" c_shapetype="line" stroke-linecap="round" fill="none" layerid="2" locked="0"><title>GND
 width = 1.000 mm</title></polyline><polyline points="4374.75 3150 4362 3150 4349.5 3162.5 4349.5 3292.16 4390.29 3332.95" stroke-width="3.937" c_shapetype="line" stroke-linecap="round" fill="none" layerid="2" locked="0"><title>U3_2
 width = 1.000 mm</title></polyline><g c_origin="4479,3373.5" c_para="package`10KRESISTOR`Contributor`alexandriamckie`link`https://au.element14.com/multicomp/mcmf0w4df1002a50/res-10k-0-50-250mw-axial/dp/1563077`BOM_Manufacturer`MULTICOMP PRO`BOM_Manufacturer Part`MCMF0W4DF1002A50`BOM_Supplier Part`1563077`BOM_Supplier`Element14`spicePre`U`spiceSymbolName`10KRESISTOR`" c_partid="part_lib_gge3c6579cb15194679" locked="0" c_shapetype="group" c_etype="pinpart" layerid="1" uuid="58f0180254f7403e9bac79b3cfc6a9ec" utime="1588586877" add_into_bom="yes" moved-from="1"><g c_partid="part_pcbtext" c_etype="" c_origin="4479,3360.5" c_rotation="0" c_mirror="0" locked="0" layerid="3" c_shapetype="group" display="none" before-id="gge129" style=""><path c_fontsize="4.5" c_fontfamily="" c_text="10KRESISTOR" d="M 4479 3356.78 L 4479.41 3356.57 L 4480.02 3355.96 L 4480.02 3360.25 M 4482.6 3355.96 L 4481.99 3356.16 L 4481.58 3356.78 L 4481.37 3357.8 L 4481.37 3358.41 L 4481.58 3359.44 L 4481.99 3360.05 L 4482.6 3360.25 L 4483.01 3360.25 L 4483.62 3360.05 L 4484.03 3359.44 L 4484.24 3358.41 L 4484.24 3357.8 L 4484.03 3356.78 L 4483.62 3356.16 L 4483.01 3355.96 L 4482.6 3355.96 M 4485.59 3355.96 L 4485.59 3360.25 M 4488.45 3355.96 L 4485.59 3358.82 M 4486.61 3357.8 L 4488.45 3360.25 M 4489.8 3355.96 L 4489.8 3360.25 M 4489.8 3355.96 L 4491.64 3355.96 L 4492.25 3356.16 L 4492.46 3356.37 L 4492.66 3356.78 L 4492.66 3357.19 L 4492.46 3357.6 L 4492.25 3357.8 L 4491.64 3358 L 4489.8 3358 M 4491.23 3358 L 4492.66 3360.25 M 4494.01 3355.96 L 4494.01 3360.25 M 4494.01 3355.96 L 4496.67 3355.96 M 4494.01 3358 L 4495.65 3358 M 4494.01 3360.25 L 4496.67 3360.25 M 4500.89 3356.57 L 4500.48 3356.16 L 4499.86 3355.96 L 4499.05 3355.96 L 4498.43 3356.16 L 4498.02 3356.57 L 4498.02 3356.98 L 4498.23 3357.39 L 4498.43 3357.6 L 4498.84 3357.8 L 4500.07 3358.21 L 4500.48 3358.41 L 4500.68 3358.62 L 4500.89 3359.03 L 4500.89 3359.64 L 4500.48 3360.05 L 4499.86 3360.25 L 4499.05 3360.25 L 4498.43 3360.05 L 4498.02 3359.64 M 4502.24 3355.96 L 4502.24 3360.25 M 4506.45 3356.57 L 4506.04 3356.16 L 4505.43 3355.96 L 4504.61 3355.96 L 4504 3356.16 L 4503.59 3356.57 L 4503.59 3356.98 L 4503.79 3357.39 L 4504 3357.6 L 4504.4 3357.8 L 4505.63 3358.21 L 4506.04 3358.41 L 4506.25 3358.62 L 4506.45 3359.03 L 4506.45 3359.64 L 4506.04 3360.05 L 4505.43 3360.25 L 4504.61 3360.25 L 4504 3360.05 L 4503.59 3359.64 M 4509.23 3355.96 L 4509.23 3360.25 M 4507.8 3355.96 L 4510.66 3355.96 M 4513.24 3355.96 L 4512.83 3356.16 L 4512.42 3356.57 L 4512.22 3356.98 L 4512.01 3357.6 L 4512.01 3358.62 L 4512.22 3359.23 L 4512.42 3359.64 L 4512.83 3360.05 L 4513.24 3360.25 L 4514.06 3360.25 L 4514.47 3360.05 L 4514.88 3359.64 L 4515.08 3359.23 L 4515.29 3358.62 L 4515.29 3357.6 L 4515.08 3356.98 L 4514.88 3356.57 L 4514.47 3356.16 L 4514.06 3355.96 L 4513.24 3355.96 M 4516.64 3355.96 L 4516.64 3360.25 M 4516.64 3355.96 L 4518.48 3355.96 L 4519.09 3356.16 L 4519.3 3356.37 L 4519.5 3356.78 L 4519.5 3357.19 L 4519.3 3357.6 L 4519.09 3357.8 L 4518.48 3358 L 4516.64 3358 M 4518.07 3358 L 4519.5 3360.25" fill="none" stroke-width="0.6" c_note="note_name" style=""/></g><g c_partid="part_pcbtext" c_etype="" c_origin="4479,3367.5" c_rotation="0" c_mirror="0" locked="0" layerid="3" c_shapetype="group" before-id="gge135" style=""><path c_fontsize="4.5" c_fontfamily="" c_text="U2" d="M 4479 3362.96 L 4479 3366.03 L 4479.2 3366.64 L 4479.61 3367.05 L 4480.23 3367.25 L 4480.64 3367.25 L 4481.25 3367.05 L 4481.66 3366.64 L 4481.86 3366.03 L 4481.86 3362.96 M 4483.42 3363.98 L 4483.42 3363.78 L 4483.62 3363.37 L 4483.83 3363.16 L 4484.24 3362.96 L 4485.05 3362.96 L 4485.46 3363.16 L 4485.67 3363.37 L 4485.87 3363.78 L 4485.87 3364.19 L 4485.67 3364.6 L 4485.26 3365.21 L 4483.21 3367.25 L 4486.08 3367.25" fill="none" stroke-width="0.6" c_note="note_pre" style=""/></g><polyline points="4465.614 3368.579 4492.386 3368.579 4492.386 3378.422 4465.614 3378.422 4465.614 3368.579" stroke-width="1" c_shapetype="line" stroke-linecap="round" fill="none" layerid="3" locked="0" before-id="gge138"/><g c_partid="part_pad" c_etype="pinpart" c_origin="4453.409,3373.5" layerid="11" plated="Y" c_shapetype="group" locked="0" c_rotation="0" c_width="7.874" c_height="7.874" c_shape="RECT" pasteexpansion="0" solderexpansion="0.4" before-id="gge153"><polygon points="4449.472 3369.563 4457.346 3369.563 4457.346 3377.437 4449.472 3377.437" layerid="8" stroke-width="0.8" c_etype="pad_outer"/><polygon points="4449.472 3369.563 4457.346 3369.563 4457.346 3377.437 4449.472 3377.437" layerid="7" stroke-width="0.8" c_etype="pad_outer"/><polygon c_etype="pad_shell" points="4449.472 3369.563 4457.346 3369.563 4457.346 3377.437 4449.472 3377.437" layerid="11" stroke-width="0"/><circle c_etype="pad_hole" cx="4453.409" cy="3373.5" r="1.8" layerid="11" stroke-width="0"/></g><g c_partid="part_pad" c_etype="pinpart" c_origin="4504.591,3373.5" layerid="11" plated="Y" c_shapetype="group" locked="0" c_rotation="0" c_width="7.874" c_height="7.874" c_shape="RECT" pasteexpansion="0" solderexpansion="0.4"><polygon points="4500.654 3369.563 4508.528 3369.563 4508.528 3377.437 4500.654 3377.437" layerid="8" stroke-width="0.8" c_etype="pad_outer"/><polygon points="4500.654 3369.563 4508.528 3369.563 4508.528 3377.437 4500.654 3377.437" layerid="7" stroke-width="0.8" c_etype="pad_outer"/><polygon c_etype="pad_shell" points="4500.654 3369.563 4508.528 3369.563 4508.528 3377.437 4500.654 3377.437" layerid="11" stroke-width="0"/><circle c_etype="pad_hole" cx="4504.591" cy="3373.5" r="1.8" layerid="11" stroke-width="0"/></g></g><g c_origin="4526.5,3373.5" c_para="package`LDR`Contributor`PatoViejo`link``BOM_Manufacturer``BOM_Manufacturer Part``BOM_Supplier Part``BOM_Supplier``spicePre`U`spiceSymbolName`LDR`" c_partid="part_lib_gge6e743773ccaa4e12" locked="0" c_shapetype="group" c_etype="pinpart" layerid="1" uuid="a067dee1a052416c855f1a9bd7746116" utime="1591552302" add_into_bom="yes" moved-from="1"><g c_partid="part_pcbtext" c_etype="" c_origin="4534.5,3352.5" c_rotation="0" c_mirror="0" locked="0" layerid="3" c_shapetype="group" display="none" before-id="gge180" style=""><path c_fontsize="4.5" c_fontfamily="" c_text="LDR" d="M 4534.5 3347.96 L 4534.5 3352.25 M 4534.5 3352.25 L 4536.95 3352.25 M 4538.3 3347.96 L 4538.3 3352.25 M 4538.3 3347.96 L 4539.74 3347.96 L 4540.35 3348.16 L 4540.76 3348.57 L 4540.96 3348.98 L 4541.17 3349.6 L 4541.17 3350.62 L 4540.96 3351.23 L 4540.76 3351.64 L 4540.35 3352.05 L 4539.74 3352.25 L 4538.3 3352.25 M 4542.52 3347.96 L 4542.52 3352.25 M 4542.52 3347.96 L 4544.36 3347.96 L 4544.97 3348.16 L 4545.18 3348.37 L 4545.38 3348.78 L 4545.38 3349.19 L 4545.18 3349.6 L 4544.97 3349.8 L 4544.36 3350 L 4542.52 3350 M 4543.95 3350 L 4545.38 3352.25" fill="none" stroke-width="0.6" c_note="note_name" style=""/></g><g c_partid="part_pcbtext" c_etype="" c_origin="4534.5,3359.5" c_rotation="0" c_mirror="0" locked="0" layerid="3" c_shapetype="group" before-id="gge186" style=""><path c_fontsize="4.5" c_fontfamily="" c_text="U3" d="M 4534.5 3354.96 L 4534.5 3358.03 L 4534.7 3358.64 L 4535.11 3359.05 L 4535.73 3359.25 L 4536.14 3359.25 L 4536.75 3359.05 L 4537.16 3358.64 L 4537.36 3358.03 L 4537.36 3354.96 M 4539.12 3354.96 L 4541.37 3354.96 L 4540.15 3356.6 L 4540.76 3356.6 L 4541.17 3356.8 L 4541.37 3357 L 4541.58 3357.62 L 4541.58 3358.03 L 4541.37 3358.64 L 4540.96 3359.05 L 4540.35 3359.25 L 4539.74 3359.25 L 4539.12 3359.05 L 4538.92 3358.85 L 4538.71 3358.44" fill="none" stroke-width="0.6" c_note="note_pre" style=""/></g><circle cx="4534.5" cy="3373.5" r="12.5" stroke-width="1" fill="none" layerid="3" locked="0" c_shapetype="line" before-id="gge189"/><g c_partid="part_pad" c_etype="pinpart" c_origin="4526.5,3373.5" layerid="11" plated="Y" c_shapetype="group" locked="0" c_rotation="0" c_width="7.874" c_height="7.874" c_shape="RECT" pasteexpansion="0" solderexpansion="0.2" before-id="gge204"><polygon points="4522.563 3369.563 4530.437 3369.563 4530.437 3377.437 4522.563 3377.437" layerid="8" stroke-width="0.4" c_etype="pad_outer"/><polygon points="4522.563 3369.563 4530.437 3369.563 4530.437 3377.437 4522.563 3377.437" layerid="7" stroke-width="0.4" c_etype="pad_outer"/><polygon c_etype="pad_shell" points="4522.563 3369.563 4530.437 3369.563 4530.437 3377.437 4522.563 3377.437" layerid="11" stroke-width="0"/><circle c_etype="pad_hole" cx="4526.5" cy="3373.5" r="1.8" layerid="11" stroke-width="0"/></g><g c_partid="part_pad" c_etype="pinpart" c_origin="4542.5,3374" layerid="11" plated="Y" c_shapetype="group" locked="0" c_rotation="0" c_width="7.874" c_height="7.874" c_shape="RECT" pasteexpansion="0" solderexpansion="0.2"><polygon points="4538.563 3370.063 4546.437 3370.063 4546.437 3377.937 4538.563 3377.937" layerid="8" stroke-width="0.4" c_etype="pad_outer"/><polygon points="4538.563 3370.063 4546.437 3370.063 4546.437 3377.937 4538.563 3377.937" layerid="7" stroke-width="0.4" c_etype="pad_outer"/><polygon c_etype="pad_shell" points="4538.563 3370.063 4546.437 3370.063 4546.437 3377.937 4538.563 3377.937" layerid="11" stroke-width="0"/><circle c_etype="pad_hole" cx="4542.5" cy="3374" r="1.8" layerid="11" stroke-width="0"/></g></g><g c_origin="4439.5,3286.5" c_para="package`ESP8266-E12-NODEMCU-V3`Contributor`sigmur`link``BOM_Manufacturer``BOM_Manufacturer Part``BOM_Supplier Part``BOM_Supplier``spicePre`U`spiceSymbolName`ESP8266-E12 NODEMCU V3`" c_partid="part_lib_gge079ceb6950444847" locked="0" c_shapetype="group" c_etype="pinpart" layerid="1" c_rotation="90" uuid="9e3b14e77d564048af1be089ee489293" utime="1557502020" add_into_bom="yes" moved-from="1"><g c_partid="part_pcbtext" c_etype="" c_origin="4321.657,3285.736" c_rotation="90" c_mirror="0" locked="0" layerid="3" c_shapetype="group" display="none" before-id="gge231" style=""><path c_fontsize="4.5" c_fontfamily="" c_text="ESP8266-E12 NODEMCU V3" d="M 4317.1174 3285.7362 L 4321.4074 3285.7362 M 4317.1174 3285.7362 L 4317.1174 3283.0762 M 4319.1574 3285.7362 L 4319.1574 3284.0962 M 4321.4074 3285.7362 L 4321.4074 3283.0762 M 4317.7274 3278.8662 L 4317.3174 3279.2762 L 4317.1174 3279.8862 L 4317.1174 3280.7062 L 4317.3174 3281.3162 L 4317.7274 3281.7262 L 4318.1374 3281.7262 L 4318.5474 3281.5262 L 4318.7574 3281.3162 L 4318.9574 3280.9062 L 4319.3674 3279.6862 L 4319.5674 3279.2762 L 4319.7774 3279.0662 L 4320.1874 3278.8662 L 4320.7974 3278.8662 L 4321.2074 3279.2762 L 4321.4074 3279.8862 L 4321.4074 3280.7062 L 4321.2074 3281.3162 L 4320.7974 3281.7262 M 4317.1174 3277.5162 L 4321.4074 3277.5162 M 4317.1174 3277.5162 L 4317.1174 3275.6762 L 4317.3174 3275.0562 L 4317.5274 3274.8562 L 4317.9374 3274.6462 L 4318.5474 3274.6462 L 4318.9574 3274.8562 L 4319.1574 3275.0562 L 4319.3674 3275.6762 L 4319.3674 3277.5162 M 4317.1174 3272.2762 L 4317.3174 3272.8862 L 4317.7274 3273.0962 L 4318.1374 3273.0962 L 4318.5474 3272.8862 L 4318.7574 3272.4862 L 4318.9574 3271.6662 L 4319.1574 3271.0462 L 4319.5674 3270.6362 L 4319.9774 3270.4362 L 4320.5974 3270.4362 L 4321.0074 3270.6362 L 4321.2074 3270.8462 L 4321.4074 3271.4562 L 4321.4074 3272.2762 L 4321.2074 3272.8862 L 4321.0074 3273.0962 L 4320.5974 3273.2962 L 4319.9774 3273.2962 L 4319.5674 3273.0962 L 4319.1574 3272.6862 L 4318.9574 3272.0762 L 4318.7574 3271.2562 L 4318.5474 3270.8462 L 4318.1374 3270.6362 L 4317.7274 3270.6362 L 4317.3174 3270.8462 L 4317.1174 3271.4562 L 4317.1174 3272.2762 M 4318.1374 3268.8862 L 4317.9374 3268.8862 L 4317.5274 3268.6762 L 4317.3174 3268.4762 L 4317.1174 3268.0662 L 4317.1174 3267.2462 L 4317.3174 3266.8362 L 4317.5274 3266.6362 L 4317.9374 3266.4262 L 4318.3474 3266.4262 L 4318.7574 3266.6362 L 4319.3674 3267.0362 L 4321.4074 3269.0862 L 4321.4074 3266.2262 M 4317.7274 3262.4162 L 4317.3174 3262.6262 L 4317.1174 3263.2362 L 4317.1174 3263.6462 L 4317.3174 3264.2562 L 4317.9374 3264.6662 L 4318.9574 3264.8762 L 4319.9774 3264.8762 L 4320.7974 3264.6662 L 4321.2074 3264.2562 L 4321.4074 3263.6462 L 4321.4074 3263.4362 L 4321.2074 3262.8262 L 4320.7974 3262.4162 L 4320.1874 3262.2162 L 4319.9774 3262.2162 L 4319.3674 3262.4162 L 4318.9574 3262.8262 L 4318.7574 3263.4362 L 4318.7574 3263.6462 L 4318.9574 3264.2562 L 4319.3674 3264.6662 L 4319.9774 3264.8762 M 4317.7274 3258.4062 L 4317.3174 3258.6162 L 4317.1174 3259.2262 L 4317.1174 3259.6362 L 4317.3174 3260.2462 L 4317.9374 3260.6562 L 4318.9574 3260.8662 L 4319.9774 3260.8662 L 4320.7974 3260.6562 L 4321.2074 3260.2462 L 4321.4074 3259.6362 L 4321.4074 3259.4362 L 4321.2074 3258.8162 L 4320.7974 3258.4062 L 4320.1874 3258.2062 L 4319.9774 3258.2062 L 4319.3674 3258.4062 L 4318.9574 3258.8162 L 4318.7574 3259.4362 L 4318.7574 3259.6362 L 4318.9574 3260.2462 L 4319.3674 3260.6562 L 4319.9774 3260.8662 M 4319.5674 3256.8562 L 4319.5674 3253.1762 M 4317.1174 3251.8262 L 4321.4074 3251.8262 M 4317.1174 3251.8262 L 4317.1174 3249.1662 M 4319.1574 3251.8262 L 4319.1574 3250.1862 M 4321.4074 3251.8262 L 4321.4074 3249.1662 M 4317.9374 3247.8162 L 4317.7274 3247.4062 L 4317.1174 3246.7862 L 4321.4074 3246.7862 M 4318.1374 3245.2362 L 4317.9374 3245.2362 L 4317.5274 3245.0362 L 4317.3174 3244.8262 L 4317.1174 3244.4162 L 4317.1174 3243.5962 L 4317.3174 3243.1862 L 4317.5274 3242.9862 L 4317.9374 3242.7862 L 4318.3474 3242.7862 L 4318.7574 3242.9862 L 4319.3674 3243.3962 L 4321.4074 3245.4362 L 4321.4074 3242.5762 M 4317.1174 3238.0762 L 4321.4074 3238.0762 M 4317.1174 3238.0762 L 4321.4074 3235.2162 M 4317.1174 3235.2162 L 4321.4074 3235.2162 M 4317.1174 3232.6362 L 4317.3174 3233.0462 L 4317.7274 3233.4562 L 4318.1374 3233.6562 L 4318.7574 3233.8662 L 4319.7774 3233.8662 L 4320.3874 3233.6562 L 4320.7974 3233.4562 L 4321.2074 3233.0462 L 4321.4074 3232.6362 L 4321.4074 3231.8162 L 4321.2074 3231.4062 L 4320.7974 3230.9962 L 4320.3874 3230.7962 L 4319.7774 3230.5862 L 4318.7574 3230.5862 L 4318.1374 3230.7962 L 4317.7274 3230.9962 L 4317.3174 3231.4062 L 4317.1174 3231.8162 L 4317.1174 3232.6362 M 4317.1174 3229.2362 L 4321.4074 3229.2362 M 4317.1174 3229.2362 L 4317.1174 3227.8062 L 4317.3174 3227.1962 L 4317.7274 3226.7862 L 4318.1374 3226.5862 L 4318.7574 3226.3762 L 4319.7774 3226.3762 L 4320.3874 3226.5862 L 4320.7974 3226.7862 L 4321.2074 3227.1962 L 4321.4074 3227.8062 L 4321.4074 3229.2362 M 4317.1174 3225.0262 L 4321.4074 3225.0262 M 4317.1174 3225.0262 L 4317.1174 3222.3662 M 4319.1574 3225.0262 L 4319.1574 3223.3862 M 4321.4074 3225.0262 L 4321.4074 3222.3662 M 4317.1174 3221.0162 L 4321.4074 3221.0162 M 4317.1174 3221.0162 L 4321.4074 3219.3862 M 4317.1174 3217.7462 L 4321.4074 3219.3862 M 4317.1174 3217.7462 L 4321.4074 3217.7462 M 4318.1374 3213.3262 L 4317.7274 3213.5362 L 4317.3174 3213.9362 L 4317.1174 3214.3462 L 4317.1174 3215.1662 L 4317.3174 3215.5762 L 4317.7274 3215.9862 L 4318.1374 3216.1862 L 4318.7574 3216.3962 L 4319.7774 3216.3962 L 4320.3874 3216.1862 L 4320.7974 3215.9862 L 4321.2074 3215.5762 L 4321.4074 3215.1662 L 4321.4074 3214.3462 L 4321.2074 3213.9362 L 4320.7974 3213.5362 L 4320.3874 3213.3262 M 4317.1174 3211.9762 L 4320.1874 3211.9762 L 4320.7974 3211.7762 L 4321.2074 3211.3662 L 4321.4074 3210.7462 L 4321.4074 3210.3362 L 4321.2074 3209.7262 L 4320.7974 3209.3162 L 4320.1874 3209.1162 L 4317.1174 3209.1162 M 4317.1174 3204.6162 L 4321.4074 3202.9762 M 4317.1174 3201.3362 L 4321.4074 3202.9762 M 4317.1174 3199.5862 L 4317.1174 3197.3362 L 4318.7574 3198.5562 L 4318.7574 3197.9462 L 4318.9574 3197.5362 L 4319.1574 3197.3362 L 4319.7774 3197.1262 L 4320.1874 3197.1262 L 4320.7974 3197.3362 L 4321.2074 3197.7362 L 4321.4074 3198.3562 L 4321.4074 3198.9662 L 4321.2074 3199.5862 L 4321.0074 3199.7862 L 4320.5974 3199.9862" fill="none" stroke-width="0.6" c_note="note_name" style=""/></g><g c_partid="part_pcbtext" c_etype="" c_origin="4328.657,3285.736" c_rotation="90" c_mirror="0" locked="0" layerid="3" c_shapetype="group" before-id="gge237" style=""><path c_fontsize="4.5" c_fontfamily="" c_text="U4" d="M 4324.1174 3285.7362 L 4327.1874 3285.7362 L 4327.7974 3285.5362 L 4328.2074 3285.1262 L 4328.4074 3284.5062 L 4328.4074 3284.0962 L 4328.2074 3283.4862 L 4327.7974 3283.0762 L 4327.1874 3282.8762 L 4324.1174 3282.8762 M 4324.1174 3279.4762 L 4326.9774 3281.5262 L 4326.9774 3278.4562 M 4324.1174 3279.4762 L 4328.4074 3279.4762" fill="none" stroke-width="0.6" c_note="note_pre" style=""/></g><polyline points="4329.6574 3346.2362 4329.6574 3224.1892 4555.6414 3224.1892 4555.6414 3346.2362 4329.6574 3346.2362" stroke-width="1" c_shapetype="line" stroke-linecap="round" fill="none" layerid="3" locked="0" before-id="gge240"/><polyline points="4540.1574 3306.2362 4540.1574 3263.7362 4566.1574 3263.7362 4566.1574 3306.2362 4540.1574 3306.2362" stroke-width="1" c_shapetype="line" stroke-linecap="round" fill="none" layerid="3" locked="0" before-id="gge243"/><circle cx="4339.5" cy="3334.925" r="5.906" stroke-width="1" fill="none" layerid="3" locked="0" c_shapetype="line" before-id="gge246"/><circle cx="4339.5" cy="3236.5" r="5.906" stroke-width="1" fill="none" layerid="3" locked="0" c_shapetype="line" before-id="gge249"/><circle cx="4543.83" cy="3334.925" r="5.906" stroke-width="1" fill="none" layerid="3" locked="0" c_shapetype="line" before-id="gge252"/><circle cx="4543.83" cy="3236.5" r="5.906" stroke-width="1" fill="none" layerid="3" locked="0" c_shapetype="line" before-id="gge255"/><g c_partid="part_pcbtext" c_etype="" c_origin="4480.388,3290.877" c_rotation="180" c_mirror="0" locked="0" layerid="3" c_shapetype="group" before-id="gge261" style=""><path c_fontsize="8" c_fontfamily="" c_text="ESP8266-E12\nNodeMCU V3" d="M 4480.3879 3295.2368 L 4480.3879 3287.6068 M 4480.3879 3295.2368 L 4475.6579 3295.2368 M 4480.3879 3291.6068 L 4477.4779 3291.6068 M 4480.3879 3287.6068 L 4475.6579 3287.6068 M 4468.1679 3294.1468 L 4468.8979 3294.8768 L 4469.9879 3295.2368 L 4471.4379 3295.2368 L 4472.5379 3294.8768 L 4473.2579 3294.1468 L 4473.2579 3293.4268 L 4472.8979 3292.6968 L 4472.5379 3292.3268 L 4471.8079 3291.9668 L 4469.6279 3291.2368 L 4468.8979 3290.8768 L 4468.5379 3290.5168 L 4468.1679 3289.7868 L 4468.1679 3288.6968 L 4468.8979 3287.9668 L 4469.9879 3287.6068 L 4471.4379 3287.6068 L 4472.5379 3287.9668 L 4473.2579 3288.6968 M 4465.7679 3295.2368 L 4465.7679 3287.6068 M 4465.7679 3295.2368 L 4462.4979 3295.2368 L 4461.4079 3294.8768 L 4461.0379 3294.5168 L 4460.6779 3293.7868 L 4460.6779 3292.6968 L 4461.0379 3291.9668 L 4461.4079 3291.6068 L 4462.4979 3291.2368 L 4465.7679 3291.2368 M 4456.4579 3295.2368 L 4457.5479 3294.8768 L 4457.9179 3294.1468 L 4457.9179 3293.4268 L 4457.5479 3292.6968 L 4456.8279 3292.3268 L 4455.3679 3291.9668 L 4454.2779 3291.6068 L 4453.5479 3290.8768 L 4453.1879 3290.1468 L 4453.1879 3289.0568 L 4453.5479 3288.3268 L 4453.9179 3287.9668 L 4455.0079 3287.6068 L 4456.4579 3287.6068 L 4457.5479 3287.9668 L 4457.9179 3288.3268 L 4458.2779 3289.0568 L 4458.2779 3290.1468 L 4457.9179 3290.8768 L 4457.1879 3291.6068 L 4456.0979 3291.9668 L 4454.6379 3292.3268 L 4453.9179 3292.6968 L 4453.5479 3293.4268 L 4453.5479 3294.1468 L 4453.9179 3294.8768 L 4455.0079 3295.2368 L 4456.4579 3295.2368 M 4450.4279 3293.4268 L 4450.4279 3293.7868 L 4450.0579 3294.5168 L 4449.6979 3294.8768 L 4448.9679 3295.2368 L 4447.5179 3295.2368 L 4446.7879 3294.8768 L 4446.4279 3294.5168 L 4446.0579 3293.7868 L 4446.0579 3293.0568 L 4446.4279 3292.3268 L 4447.1479 3291.2368 L 4450.7879 3287.6068 L 4445.6979 3287.6068 M 4438.9379 3294.1468 L 4439.2979 3294.8768 L 4440.3879 3295.2368 L 4441.1179 3295.2368 L 4442.2079 3294.8768 L 4442.9379 3293.7868 L 4443.2979 3291.9668 L 4443.2979 3290.1468 L 4442.9379 3288.6968 L 4442.2079 3287.9668 L 4441.1179 3287.6068 L 4440.7479 3287.6068 L 4439.6579 3287.9668 L 4438.9379 3288.6968 L 4438.5679 3289.7868 L 4438.5679 3290.1468 L 4438.9379 3291.2368 L 4439.6579 3291.9668 L 4440.7479 3292.3268 L 4441.1179 3292.3268 L 4442.2079 3291.9668 L 4442.9379 3291.2368 L 4443.2979 3290.1468 M 4431.8079 3294.1468 L 4432.1679 3294.8768 L 4433.2579 3295.2368 L 4433.9879 3295.2368 L 4435.0779 3294.8768 L 4435.8079 3293.7868 L 4436.1679 3291.9668 L 4436.1679 3290.1468 L 4435.8079 3288.6968 L 4435.0779 3287.9668 L 4433.9879 3287.6068 L 4433.6279 3287.6068 L 4432.5379 3287.9668 L 4431.8079 3288.6968 L 4431.4379 3289.7868 L 4431.4379 3290.1468 L 4431.8079 3291.2368 L 4432.5379 3291.9668 L 4433.6279 3292.3268 L 4433.9879 3292.3268 L 4435.0779 3291.9668 L 4435.8079 3291.2368 L 4436.1679 3290.1468 M 4429.0379 3290.8768 L 4422.4979 3290.8768 M 4420.0979 3295.2368 L 4420.0979 3287.6068 M 4420.0979 3295.2368 L 4415.3679 3295.2368 M 4420.0979 3291.6068 L 4417.1879 3291.6068 M 4420.0979 3287.6068 L 4415.3679 3287.6068 M 4412.9679 3293.7868 L 4412.2379 3294.1468 L 4411.1479 3295.2368 L 4411.1479 3287.6068 M 4408.3879 3293.4268 L 4408.3879 3293.7868 L 4408.0279 3294.5168 L 4407.6579 3294.8768 L 4406.9379 3295.2368 L 4405.4779 3295.2368 L 4404.7479 3294.8768 L 4404.3879 3294.5168 L 4404.0279 3293.7868 L 4404.0279 3293.0568 L 4404.3879 3292.3268 L 4405.1179 3291.2368 L 4408.7479 3287.6068 L 4403.6579 3287.6068 M 4480.3879 3283.2368 L 4480.3879 3275.6068 M 4480.3879 3283.2368 L 4475.2979 3275.6068 M 4475.2979 3283.2368 L 4475.2979 3275.6068 M 4471.0779 3280.6968 L 4471.8079 3280.3268 L 4472.5379 3279.6068 L 4472.8979 3278.5168 L 4472.8979 3277.7868 L 4472.5379 3276.6968 L 4471.8079 3275.9668 L 4471.0779 3275.6068 L 4469.9879 3275.6068 L 4469.2579 3275.9668 L 4468.5379 3276.6968 L 4468.1679 3277.7868 L 4468.1679 3278.5168 L 4468.5379 3279.6068 L 4469.2579 3280.3268 L 4469.9879 3280.6968 L 4471.0779 3280.6968 M 4461.4079 3283.2368 L 4461.4079 3275.6068 M 4461.4079 3279.6068 L 4462.1379 3280.3268 L 4462.8579 3280.6968 L 4463.9479 3280.6968 L 4464.6779 3280.3268 L 4465.4079 3279.6068 L 4465.7679 3278.5168 L 4465.7679 3277.7868 L 4465.4079 3276.6968 L 4464.6779 3275.9668 L 4463.9479 3275.6068 L 4462.8579 3275.6068 L 4462.1379 3275.9668 L 4461.4079 3276.6968 M 4459.0079 3278.5168 L 4454.6379 3278.5168 L 4454.6379 3279.2368 L 4455.0079 3279.9668 L 4455.3679 3280.3268 L 4456.0979 3280.6968 L 4457.1879 3280.6968 L 4457.9179 3280.3268 L 4458.6379 3279.6068 L 4459.0079 3278.5168 L 4459.0079 3277.7868 L 4458.6379 3276.6968 L 4457.9179 3275.9668 L 4457.1879 3275.6068 L 4456.0979 3275.6068 L 4455.3679 3275.9668 L 4454.6379 3276.6968 M 4452.2379 3283.2368 L 4452.2379 3275.6068 M 4452.2379 3283.2368 L 4449.3379 3275.6068 M 4446.4279 3283.2368 L 4449.3379 3275.6068 M 4446.4279 3283.2368 L 4446.4279 3275.6068 M 4438.5679 3281.4268 L 4438.9379 3282.1468 L 4439.6579 3282.8768 L 4440.3879 3283.2368 L 4441.8379 3283.2368 L 4442.5679 3282.8768 L 4443.2979 3282.1468 L 4443.6579 3281.4268 L 4444.0279 3280.3268 L 4444.0279 3278.5168 L 4443.6579 3277.4268 L 4443.2979 3276.6968 L 4442.5679 3275.9668 L 4441.8379 3275.6068 L 4440.3879 3275.6068 L 4439.6579 3275.9668 L 4438.9379 3276.6968 L 4438.5679 3277.4268 M 4436.1679 3283.2368 L 4436.1679 3277.7868 L 4435.8079 3276.6968 L 4435.0779 3275.9668 L 4433.9879 3275.6068 L 4433.2579 3275.6068 L 4432.1679 3275.9668 L 4431.4379 3276.6968 L 4431.0779 3277.7868 L 4431.0779 3283.2368 M 4423.0779 3283.2368 L 4420.1679 3275.6068 M 4417.2579 3283.2368 L 4420.1679 3275.6068 M 4414.1379 3283.2368 L 4410.1379 3283.2368 L 4412.3179 3280.3268 L 4411.2279 3280.3268 L 4410.4979 3279.9668 L 4410.1379 3279.6068 L 4409.7679 3278.5168 L 4409.7679 3277.7868 L 4410.1379 3276.6968 L 4410.8579 3275.9668 L 4411.9479 3275.6068 L 4413.0379 3275.6068 L 4414.1379 3275.9668 L 4414.4979 3276.3268 L 4414.8579 3277.0568" fill="none" stroke-width="0.8"/></g><g c_partid="part_pcbtext" c_etype="" c_origin="4548.157,3295.736" c_rotation="90" c_mirror="0" locked="0" layerid="3" c_shapetype="group" before-id="gge267" style=""><path c_fontsize="8" c_fontfamily="" c_text="USB" d="M 4543.7974 3295.7362 L 4549.2474 3295.7362 L 4550.3374 3295.3762 L 4551.0674 3294.6462 L 4551.4274 3293.5562 L 4551.4274 3292.8262 L 4551.0674 3291.7362 L 4550.3374 3291.0062 L 4549.2474 3290.6462 L 4543.7974 3290.6462 M 4544.8874 3283.1562 L 4544.1574 3283.8862 L 4543.7974 3284.9762 L 4543.7974 3286.4262 L 4544.1574 3287.5162 L 4544.8874 3288.2462 L 4545.6074 3288.2462 L 4546.3374 3287.8862 L 4546.7074 3287.5162 L 4547.0674 3286.7862 L 4547.7974 3284.6062 L 4548.1574 3283.8862 L 4548.5174 3283.5162 L 4549.2474 3283.1562 L 4550.3374 3283.1562 L 4551.0674 3283.8862 L 4551.4274 3284.9762 L 4551.4274 3286.4262 L 4551.0674 3287.5162 L 4550.3374 3288.2462 M 4543.7974 3280.7562 L 4551.4274 3280.7562 M 4543.7974 3280.7562 L 4543.7974 3277.4862 L 4544.1574 3276.3862 L 4544.5174 3276.0262 L 4545.2474 3275.6662 L 4545.9774 3275.6662 L 4546.7074 3276.0262 L 4547.0674 3276.3862 L 4547.4274 3277.4862 M 4547.4274 3280.7562 L 4547.4274 3277.4862 L 4547.7974 3276.3862 L 4548.1574 3276.0262 L 4548.8874 3275.6662 L 4549.9774 3275.6662 L 4550.7074 3276.0262 L 4551.0674 3276.3862 L 4551.4274 3277.4862 L 4551.4274 3280.7562" fill="none" stroke-width="0.8"/></g><g c_partid="part_pad" c_etype="pinpart" c_origin="4370.602,3342.012" layerid="11" plated="Y" c_shapetype="group" locked="0" c_rotation="90" c_width="11.0236" c_height="7.0866" c_shape="RECT" pasteexpansion="0" solderexpansion="0.2" before-id="gge282"><polygon points="4367.0587 3347.5238 4367.0587 3336.5002 4374.1453 3336.5002 4374.1453 3347.5238" layerid="8" stroke-width="0.4" c_etype="pad_outer"/><polygon points="4367.0587 3347.5238 4367.0587 3336.5002 4374.1453 3336.5002 4374.1453 3347.5238" layerid="7" stroke-width="0.4" c_etype="pad_outer"/><polygon c_etype="pad_shell" points="4367.0587 3347.5238 4367.0587 3336.5002 4374.1453 3336.5002 4374.1453 3347.5238" layerid="11" stroke-width="0"/><circle c_etype="pad_hole" cx="4370.6024" cy="3342.0122" r="1.8" layerid="11" stroke-width="0"/></g><g c_partid="part_pad" c_etype="pinpart" c_origin="4380.444,3342.012" layerid="11" plated="Y" c_shapetype="group" locked="0" c_rotation="90" c_width="11.0236" c_height="7.0866" c_shape="RECT" pasteexpansion="0" solderexpansion="0.2" before-id="gge297"><polygon points="4376.9007 3347.5238 4376.9007 3336.5002 4383.9873 3336.5002 4383.9873 3347.5238" layerid="8" stroke-width="0.4" c_etype="pad_outer"/><polygon points="4376.9007 3347.5238 4376.9007 3336.5002 4383.9873 3336.5002 4383.9873 3347.5238" layerid="7" stroke-width="0.4" c_etype="pad_outer"/><polygon c_etype="pad_shell" points="4376.9007 3347.5238 4376.9007 3336.5002 4383.9873 3336.5002 4383.9873 3347.5238" layerid="11" stroke-width="0"/><circle c_etype="pad_hole" cx="4380.4444" cy="3342.0122" r="1.8" layerid="11" stroke-width="0"/></g><g c_partid="part_pad" c_etype="pinpart" c_origin="4390.287,3342.012" layerid="11" plated="Y" c_shapetype="group" locked="0" c_rotation="90" c_width="11.0236" c_height="7.0866" c_shape="RECT" pasteexpansion="0" solderexpansion="0.2" before-id="gge312"><polygon points="4386.7437 3347.5238 4386.7437 3336.5002 4393.8303 3336.5002 4393.8303 3347.5238" layerid="8" stroke-width="0.4" c_etype="pad_outer"/><polygon points="4386.7437 3347.5238 4386.7437 3336.5002 4393.8303 3336.5002 4393.8303 3347.5238" layerid="7" stroke-width="0.4" c_etype="pad_outer"/><polygon c_etype="pad_shell" points="4386.7437 3347.5238 4386.7437 3336.5002 4393.8303 3336.5002 4393.8303 3347.5238" layerid="11" stroke-width="0"/><circle c_etype="pad_hole" cx="4390.2874" cy="3342.0122" r="1.8" layerid="11" stroke-width="0"/></g><g c_partid="part_pad" c_etype="pinpart" c_origin="4400.129,3342.012" layerid="11" plated="Y" c_shapetype="group" locked="0" c_rotation="90" c_width="11.0236" c_height="7.0866" c_shape="RECT" pasteexpansion="0" solderexpansion="0.2" before-id="gge327"><polygon points="4396.5857 3347.5238 4396.5857 3336.5002 4403.6723 3336.5002 4403.6723 3347.5238" layerid="8" stroke-width="0.4" c_etype="pad_outer"/><polygon points="4396.5857 3347.5238 4396.5857 3336.5002 4403.6723 3336.5002 4403.6723 3347.5238" layerid="7" stroke-width="0.4" c_etype="pad_outer"/><polygon c_etype="pad_shell" points="4396.5857 3347.5238 4396.5857 3336.5002 4403.6723 3336.5002 4403.6723 3347.5238" layerid="11" stroke-width="0"/><circle c_etype="pad_hole" cx="4400.1294" cy="3342.0122" r="1.8" layerid="11" stroke-width="0"/></g><g c_partid="part_pad" c_etype="pinpart" c_origin="4409.972,3342.012" layerid="11" plated="Y" c_shapetype="group" locked="0" c_rotation="90" c_width="11.0236" c_height="7.0866" c_shape="RECT" pasteexpansion="0" solderexpansion="0.2" before-id="gge342"><polygon points="4406.4287 3347.5238 4406.4287 3336.5002 4413.5153 3336.5002 4413.5153 3347.5238" layerid="8" stroke-width="0.4" c_etype="pad_outer"/><polygon points="4406.4287 3347.5238 4406.4287 3336.5002 4413.5153 3336.5002 4413.5153 3347.5238" layerid="7" stroke-width="0.4" c_etype="pad_outer"/><polygon c_etype="pad_shell" points="4406.4287 3347.5238 4406.4287 3336.5002 4413.5153 3336.5002 4413.5153 3347.5238" layerid="11" stroke-width="0"/><circle c_etype="pad_hole" cx="4409.9724" cy="3342.0122" r="1.8" layerid="11" stroke-width="0"/></g><g c_partid="part_pad" c_etype="pinpart" c_origin="4419.815,3342.012" layerid="11" plated="Y" c_shapetype="group" locked="0" c_rotation="90" c_width="11.0236" c_height="7.0866" c_shape="RECT" pasteexpansion="0" solderexpansion="0.2" before-id="gge357"><polygon points="4416.2717 3347.5238 4416.2717 3336.5002 4423.3583 3336.5002 4423.3583 3347.5238" layerid="8" stroke-width="0.4" c_etype="pad_outer"/><polygon points="4416.2717 3347.5238 4416.2717 3336.5002 4423.3583 3336.5002 4423.3583 3347.5238" layerid="7" stroke-width="0.4" c_etype="pad_outer"/><polygon c_etype="pad_shell" points="4416.2717 3347.5238 4416.2717 3336.5002 4423.3583 3336.5002 4423.3583 3347.5238" layerid="11" stroke-width="0"/><circle c_etype="pad_hole" cx="4419.8154" cy="3342.0122" r="1.8" layerid="11" stroke-width="0"/></g><g c_partid="part_pad" c_etype="pinpart" c_origin="4429.657,3342.012" layerid="11" plated="Y" c_shapetype="group" locked="0" c_rotation="90" c_width="11.0236" c_height="7.0866" c_shape="RECT" pasteexpansion="0" solderexpansion="0.2" before-id="gge372"><polygon points="4426.1137 3347.5238 4426.1137 3336.5002 4433.2003 3336.5002 4433.2003 3347.5238" layerid="8" stroke-width="0.4" c_etype="pad_outer"/><polygon points="4426.1137 3347.5238 4426.1137 3336.5002 4433.2003 3336.5002 4433.2003 3347.5238" layerid="7" stroke-width="0.4" c_etype="pad_outer"/><polygon c_etype="pad_shell" points="4426.1137 3347.5238 4426.1137 3336.5002 4433.2003 3336.5002 4433.2003 3347.5238" layerid="11" stroke-width="0"/><circle c_etype="pad_hole" cx="4429.6574" cy="3342.0122" r="1.8" layerid="11" stroke-width="0"/></g><g c_partid="part_pad" c_etype="pinpart" c_origin="4439.5,3342.012" layerid="11" plated="Y" c_shapetype="group" locked="0" c_rotation="90" c_width="11.0236" c_height="7.0866" c_shape="RECT" pasteexpansion="0" solderexpansion="0.2" before-id="gge387"><polygon points="4435.9567 3347.5238 4435.9567 3336.5002 4443.0433 3336.5002 4443.0433 3347.5238" layerid="8" stroke-width="0.4" c_etype="pad_outer"/><polygon points="4435.9567 3347.5238 4435.9567 3336.5002 4443.0433 3336.5002 4443.0433 3347.5238" layerid="7" stroke-width="0.4" c_etype="pad_outer"/><polygon c_etype="pad_shell" points="4435.9567 3347.5238 4435.9567 3336.5002 4443.0433 3336.5002 4443.0433 3347.5238" layerid="11" stroke-width="0"/><circle c_etype="pad_hole" cx="4439.5004" cy="3342.0122" r="1.8" layerid="11" stroke-width="0"/></g><g c_partid="part_pad" c_etype="pinpart" c_origin="4449.342,3342.012" layerid="11" plated="Y" c_shapetype="group" locked="0" c_rotation="90" c_width="11.0236" c_height="7.0866" c_shape="RECT" pasteexpansion="0" solderexpansion="0.2" before-id="gge402"><polygon points="4445.7987 3347.5238 4445.7987 3336.5002 4452.8853 3336.5002 4452.8853 3347.5238" layerid="8" stroke-width="0.4" c_etype="pad_outer"/><polygon points="4445.7987 3347.5238 4445.7987 3336.5002 4452.8853 3336.5002 4452.8853 3347.5238" layerid="7" stroke-width="0.4" c_etype="pad_outer"/><polygon c_etype="pad_shell" points="4445.7987 3347.5238 4445.7987 3336.5002 4452.8853 3336.5002 4452.8853 3347.5238" layerid="11" stroke-width="0"/><circle c_etype="pad_hole" cx="4449.3424" cy="3342.0122" r="1.8" layerid="11" stroke-width="0"/></g><g c_partid="part_pad" c_etype="pinpart" c_origin="4459.185,3342.012" layerid="11" plated="Y" c_shapetype="group" locked="0" c_rotation="90" c_width="11.0236" c_height="7.0866" c_shape="RECT" pasteexpansion="0" solderexpansion="0.2" before-id="gge417"><polygon points="4455.6417 3347.5238 4455.6417 3336.5002 4462.7283 3336.5002 4462.7283 3347.5238" layerid="8" stroke-width="0.4" c_etype="pad_outer"/><polygon points="4455.6417 3347.5238 4455.6417 3336.5002 4462.7283 3336.5002 4462.7283 3347.5238" layerid="7" stroke-width="0.4" c_etype="pad_outer"/><polygon c_etype="pad_shell" points="4455.6417 3347.5238 4455.6417 3336.5002 4462.7283 3336.5002 4462.7283 3347.5238" layerid="11" stroke-width="0"/><circle c_etype="pad_hole" cx="4459.1854" cy="3342.0122" r="1.8" layerid="11" stroke-width="0"/></g><g c_partid="part_pad" c_etype="pinpart" c_origin="4469.027,3342.012" layerid="11" plated="Y" c_shapetype="group" locked="0" c_rotation="90" c_width="11.0236" c_height="7.0866" c_shape="RECT" pasteexpansion="0" solderexpansion="0.2" before-id="gge432"><polygon points="4465.4837 3347.5238 4465.4837 3336.5002 4472.5703 3336.5002 4472.5703 3347.5238" layerid="8" stroke-width="0.4" c_etype="pad_outer"/><polygon points="4465.4837 3347.5238 4465.4837 3336.5002 4472.5703 3336.5002 4472.5703 3347.5238" layerid="7" stroke-width="0.4" c_etype="pad_outer"/><polygon c_etype="pad_shell" points="4465.4837 3347.5238 4465.4837 3336.5002 4472.5703 3336.5002 4472.5703 3347.5238" layerid="11" stroke-width="0"/><circle c_etype="pad_hole" cx="4469.0274" cy="3342.0122" r="1.8" layerid="11" stroke-width="0"/><title>U4_11</title></g><g c_partid="part_pad" c_etype="pinpart" c_origin="4478.87,3342.012" layerid="11" plated="Y" c_shapetype="group" locked="0" c_rotation="90" c_width="11.0236" c_height="7.0866" c_shape="RECT" pasteexpansion="0" solderexpansion="0.2" before-id="gge447"><polygon points="4475.3267 3347.5238 4475.3267 3336.5002 4482.4133 3336.5002 4482.4133 3347.5238" layerid="8" stroke-width="0.4" c_etype="pad_outer"/><polygon points="4475.3267 3347.5238 4475.3267 3336.5002 4482.4133 3336.5002 4482.4133 3347.5238" layerid="7" stroke-width="0.4" c_etype="pad_outer"/><polygon c_etype="pad_shell" points="4475.3267 3347.5238 4475.3267 3336.5002 4482.4133 3336.5002 4482.4133 3347.5238" layerid="11" stroke-width="0"/><circle c_etype="pad_hole" cx="4478.8704" cy="3342.0122" r="1.8" layerid="11" stroke-width="0"/></g><g c_partid="part_pad" c_etype="pinpart" c_origin="4488.712,3342.012" layerid="11" plated="Y" c_shapetype="group" locked="0" c_rotation="90" c_width="11.0236" c_height="7.0866" c_shape="RECT" pasteexpansion="0" solderexpansion="0.2" before-id="gge462"><polygon points="4485.1687 3347.5238 4485.1687 3336.5002 4492.2553 3336.5002 4492.2553 3347.5238" layerid="8" stroke-width="0.4" c_etype="pad_outer"/><polygon points="4485.1687 3347.5238 4485.1687 3336.5002 4492.2553 3336.5002 4492.2553 3347.5238" layerid="7" stroke-width="0.4" c_etype="pad_outer"/><polygon c_etype="pad_shell" points="4485.1687 3347.5238 4485.1687 3336.5002 4492.2553 3336.5002 4492.2553 3347.5238" layerid="11" stroke-width="0"/><circle c_etype="pad_hole" cx="4488.7124" cy="3342.0122" r="1.8" layerid="11" stroke-width="0"/></g><g c_partid="part_pad" c_etype="pinpart" c_origin="4498.555,3342.012" layerid="11" plated="Y" c_shapetype="group" locked="0" c_rotation="90" c_width="11.0236" c_height="7.0866" c_shape="RECT" pasteexpansion="0" solderexpansion="0.2" before-id="gge477"><polygon points="4495.0117 3347.5238 4495.0117 3336.5002 4502.0983 3336.5002 4502.0983 3347.5238" layerid="8" stroke-width="0.4" c_etype="pad_outer"/><polygon points="4495.0117 3347.5238 4495.0117 3336.5002 4502.0983 3336.5002 4502.0983 3347.5238" layerid="7" stroke-width="0.4" c_etype="pad_outer"/><polygon c_etype="pad_shell" points="4495.0117 3347.5238 4495.0117 3336.5002 4502.0983 3336.5002 4502.0983 3347.5238" layerid="11" stroke-width="0"/><circle c_etype="pad_hole" cx="4498.5554" cy="3342.0122" r="1.8" layerid="11" stroke-width="0"/></g><g c_partid="part_pad" c_etype="pinpart" c_origin="4508.397,3342.012" layerid="11" plated="Y" c_shapetype="group" locked="0" c_rotation="90" c_width="11.0236" c_height="7.0866" c_shape="RECT" pasteexpansion="0" solderexpansion="0.2" before-id="gge492"><polygon points="4504.8537 3347.5238 4504.8537 3336.5002 4511.9403 3336.5002 4511.9403 3347.5238" layerid="8" stroke-width="0.4" c_etype="pad_outer"/><polygon points="4504.8537 3347.5238 4504.8537 3336.5002 4511.9403 3336.5002 4511.9403 3347.5238" layerid="7" stroke-width="0.4" c_etype="pad_outer"/><polygon c_etype="pad_shell" points="4504.8537 3347.5238 4504.8537 3336.5002 4511.9403 3336.5002 4511.9403 3347.5238" layerid="11" stroke-width="0"/><circle c_etype="pad_hole" cx="4508.3974" cy="3342.0122" r="1.8" layerid="11" stroke-width="0"/></g><g c_partid="part_pad" c_etype="pinpart" c_origin="4370.602,3230.988" layerid="11" plated="Y" c_shapetype="group" locked="0" c_rotation="90" c_width="11.0236" c_height="7.0866" c_shape="RECT" pasteexpansion="0" solderexpansion="0.2" before-id="gge507"><polygon points="4367.0587 3236.4998 4367.0587 3225.4762 4374.1453 3225.4762 4374.1453 3236.4998" layerid="8" stroke-width="0.4" c_etype="pad_outer"/><polygon points="4367.0587 3236.4998 4367.0587 3225.4762 4374.1453 3225.4762 4374.1453 3236.4998" layerid="7" stroke-width="0.4" c_etype="pad_outer"/><polygon c_etype="pad_shell" points="4367.0587 3236.4998 4367.0587 3225.4762 4374.1453 3225.4762 4374.1453 3236.4998" layerid="11" stroke-width="0"/><circle c_etype="pad_hole" cx="4370.6024" cy="3230.9882" r="1.8" layerid="11" stroke-width="0"/></g><g c_partid="part_pad" c_etype="pinpart" c_origin="4380.444,3230.988" layerid="11" plated="Y" c_shapetype="group" locked="0" c_rotation="90" c_width="11.0236" c_height="7.0866" c_shape="RECT" pasteexpansion="0" solderexpansion="0.2" before-id="gge522"><polygon points="4376.9007 3236.4998 4376.9007 3225.4762 4383.9873 3225.4762 4383.9873 3236.4998" layerid="8" stroke-width="0.4" c_etype="pad_outer"/><polygon points="4376.9007 3236.4998 4376.9007 3225.4762 4383.9873 3225.4762 4383.9873 3236.4998" layerid="7" stroke-width="0.4" c_etype="pad_outer"/><polygon c_etype="pad_shell" points="4376.9007 3236.4998 4376.9007 3225.4762 4383.9873 3225.4762 4383.9873 3236.4998" layerid="11" stroke-width="0"/><circle c_etype="pad_hole" cx="4380.4444" cy="3230.9882" r="1.8" layerid="11" stroke-width="0"/></g><g c_partid="part_pad" c_etype="pinpart" c_origin="4390.287,3230.988" layerid="11" plated="Y" c_shapetype="group" locked="0" c_rotation="90" c_width="11.0236" c_height="7.0866" c_shape="RECT" pasteexpansion="0" solderexpansion="0.2" before-id="gge537"><polygon points="4386.7437 3236.4998 4386.7437 3225.4762 4393.8303 3225.4762 4393.8303 3236.4998" layerid="8" stroke-width="0.4" c_etype="pad_outer"/><polygon points="4386.7437 3236.4998 4386.7437 3225.4762 4393.8303 3225.4762 4393.8303 3236.4998" layerid="7" stroke-width="0.4" c_etype="pad_outer"/><polygon c_etype="pad_shell" points="4386.7437 3236.4998 4386.7437 3225.4762 4393.8303 3225.4762 4393.8303 3236.4998" layerid="11" stroke-width="0"/><circle c_etype="pad_hole" cx="4390.2874" cy="3230.9882" r="1.8" layerid="11" stroke-width="0"/></g><g c_partid="part_pad" c_etype="pinpart" c_origin="4400.129,3230.988" layerid="11" plated="Y" c_shapetype="group" locked="0" c_rotation="90" c_width="11.0236" c_height="7.0866" c_shape="RECT" pasteexpansion="0" solderexpansion="0.2" before-id="gge552"><polygon points="4396.5857 3236.4998 4396.5857 3225.4762 4403.6723 3225.4762 4403.6723 3236.4998" layerid="8" stroke-width="0.4" c_etype="pad_outer"/><polygon points="4396.5857 3236.4998 4396.5857 3225.4762 4403.6723 3225.4762 4403.6723 3236.4998" layerid="7" stroke-width="0.4" c_etype="pad_outer"/><polygon c_etype="pad_shell" points="4396.5857 3236.4998 4396.5857 3225.4762 4403.6723 3225.4762 4403.6723 3236.4998" layerid="11" stroke-width="0"/><circle c_etype="pad_hole" cx="4400.1294" cy="3230.9882" r="1.8" layerid="11" stroke-width="0"/></g><g c_partid="part_pad" c_etype="pinpart" c_origin="4409.972,3230.988" layerid="11" plated="Y" c_shapetype="group" locked="0" c_rotation="90" c_width="11.0236" c_height="7.0866" c_shape="RECT" pasteexpansion="0" solderexpansion="0.2" before-id="gge567"><polygon points="4406.4287 3236.4998 4406.4287 3225.4762 4413.5153 3225.4762 4413.5153 3236.4998" layerid="8" stroke-width="0.4" c_etype="pad_outer"/><polygon points="4406.4287 3236.4998 4406.4287 3225.4762 4413.5153 3225.4762 4413.5153 3236.4998" layerid="7" stroke-width="0.4" c_etype="pad_outer"/><polygon c_etype="pad_shell" points="4406.4287 3236.4998 4406.4287 3225.4762 4413.5153 3225.4762 4413.5153 3236.4998" layerid="11" stroke-width="0"/><circle c_etype="pad_hole" cx="4409.9724" cy="3230.9882" r="1.8" layerid="11" stroke-width="0"/></g><g c_partid="part_pad" c_etype="pinpart" c_origin="4419.815,3230.988" layerid="11" plated="Y" c_shapetype="group" locked="0" c_rotation="90" c_width="11.0236" c_height="7.0866" c_shape="RECT" pasteexpansion="0" solderexpansion="0.2" before-id="gge582"><polygon points="4416.2717 3236.4998 4416.2717 3225.4762 4423.3583 3225.4762 4423.3583 3236.4998" layerid="8" stroke-width="0.4" c_etype="pad_outer"/><polygon points="4416.2717 3236.4998 4416.2717 3225.4762 4423.3583 3225.4762 4423.3583 3236.4998" layerid="7" stroke-width="0.4" c_etype="pad_outer"/><polygon c_etype="pad_shell" points="4416.2717 3236.4998 4416.2717 3225.4762 4423.3583 3225.4762 4423.3583 3236.4998" layerid="11" stroke-width="0"/><circle c_etype="pad_hole" cx="4419.8154" cy="3230.9882" r="1.8" layerid="11" stroke-width="0"/></g><g c_partid="part_pad" c_etype="pinpart" c_origin="4429.657,3230.988" layerid="11" plated="Y" c_shapetype="group" locked="0" c_rotation="90" c_width="11.0236" c_height="7.0866" c_shape="RECT" pasteexpansion="0" solderexpansion="0.2" before-id="gge597"><polygon points="4426.1137 3236.4998 4426.1137 3225.4762 4433.2003 3225.4762 4433.2003 3236.4998" layerid="8" stroke-width="0.4" c_etype="pad_outer"/><polygon points="4426.1137 3236.4998 4426.1137 3225.4762 4433.2003 3225.4762 4433.2003 3236.4998" layerid="7" stroke-width="0.4" c_etype="pad_outer"/><polygon c_etype="pad_shell" points="4426.1137 3236.4998 4426.1137 3225.4762 4433.2003 3225.4762 4433.2003 3236.4998" layerid="11" stroke-width="0"/><circle c_etype="pad_hole" cx="4429.6574" cy="3230.9882" r="1.8" layerid="11" stroke-width="0"/></g><g c_partid="part_pad" c_etype="pinpart" c_origin="4439.5,3230.988" layerid="11" plated="Y" c_shapetype="group" locked="0" c_rotation="90" c_width="11.0236" c_height="7.0866" c_shape="RECT" pasteexpansion="0" solderexpansion="0.2" before-id="gge612"><polygon points="4435.9567 3236.4998 4435.9567 3225.4762 4443.0433 3225.4762 4443.0433 3236.4998" layerid="8" stroke-width="0.4" c_etype="pad_outer"/><polygon points="4435.9567 3236.4998 4435.9567 3225.4762 4443.0433 3225.4762 4443.0433 3236.4998" layerid="7" stroke-width="0.4" c_etype="pad_outer"/><polygon c_etype="pad_shell" points="4435.9567 3236.4998 4435.9567 3225.4762 4443.0433 3225.4762 4443.0433 3236.4998" layerid="11" stroke-width="0"/><circle c_etype="pad_hole" cx="4439.5004" cy="3230.9882" r="1.8" layerid="11" stroke-width="0"/></g><g c_partid="part_pad" c_etype="pinpart" c_origin="4449.342,3230.988" layerid="11" plated="Y" c_shapetype="group" locked="0" c_rotation="90" c_width="11.0236" c_height="7.0866" c_shape="RECT" pasteexpansion="0" solderexpansion="0.2" before-id="gge627"><polygon points="4445.7987 3236.4998 4445.7987 3225.4762 4452.8853 3225.4762 4452.8853 3236.4998" layerid="8" stroke-width="0.4" c_etype="pad_outer"/><polygon points="4445.7987 3236.4998 4445.7987 3225.4762 4452.8853 3225.4762 4452.8853 3236.4998" layerid="7" stroke-width="0.4" c_etype="pad_outer"/><polygon c_etype="pad_shell" points="4445.7987 3236.4998 4445.7987 3225.4762 4452.8853 3225.4762 4452.8853 3236.4998" layerid="11" stroke-width="0"/><circle c_etype="pad_hole" cx="4449.3424" cy="3230.9882" r="1.8" layerid="11" stroke-width="0"/></g><g c_partid="part_pad" c_etype="pinpart" c_origin="4459.185,3230.988" layerid="11" plated="Y" c_shapetype="group" locked="0" c_rotation="90" c_width="11.0236" c_height="7.0866" c_shape="RECT" pasteexpansion="0" solderexpansion="0.2" before-id="gge642"><polygon points="4455.6417 3236.4998 4455.6417 3225.4762 4462.7283 3225.4762 4462.7283 3236.4998" layerid="8" stroke-width="0.4" c_etype="pad_outer"/><polygon points="4455.6417 3236.4998 4455.6417 3225.4762 4462.7283 3225.4762 4462.7283 3236.4998" layerid="7" stroke-width="0.4" c_etype="pad_outer"/><polygon c_etype="pad_shell" points="4455.6417 3236.4998 4455.6417 3225.4762 4462.7283 3225.4762 4462.7283 3236.4998" layerid="11" stroke-width="0"/><circle c_etype="pad_hole" cx="4459.1854" cy="3230.9882" r="1.8" layerid="11" stroke-width="0"/></g><g c_partid="part_pad" c_etype="pinpart" c_origin="4469.027,3230.988" layerid="11" plated="Y" c_shapetype="group" locked="0" c_rotation="90" c_width="11.0236" c_height="7.0866" c_shape="RECT" pasteexpansion="0" solderexpansion="0.2" before-id="gge657"><polygon points="4465.4837 3236.4998 4465.4837 3225.4762 4472.5703 3225.4762 4472.5703 3236.4998" layerid="8" stroke-width="0.4" c_etype="pad_outer"/><polygon points="4465.4837 3236.4998 4465.4837 3225.4762 4472.5703 3225.4762 4472.5703 3236.4998" layerid="7" stroke-width="0.4" c_etype="pad_outer"/><polygon c_etype="pad_shell" points="4465.4837 3236.4998 4465.4837 3225.4762 4472.5703 3225.4762 4472.5703 3236.4998" layerid="11" stroke-width="0"/><circle c_etype="pad_hole" cx="4469.0274" cy="3230.9882" r="1.8" layerid="11" stroke-width="0"/></g><g c_partid="part_pad" c_etype="pinpart" c_origin="4478.87,3230.988" layerid="11" plated="Y" c_shapetype="group" locked="0" c_rotation="90" c_width="11.0236" c_height="7.0866" c_shape="RECT" pasteexpansion="0" solderexpansion="0.2" before-id="gge672"><polygon points="4475.3267 3236.4998 4475.3267 3225.4762 4482.4133 3225.4762 4482.4133 3236.4998" layerid="8" stroke-width="0.4" c_etype="pad_outer"/><polygon points="4475.3267 3236.4998 4475.3267 3225.4762 4482.4133 3225.4762 4482.4133 3236.4998" layerid="7" stroke-width="0.4" c_etype="pad_outer"/><polygon c_etype="pad_shell" points="4475.3267 3236.4998 4475.3267 3225.4762 4482.4133 3225.4762 4482.4133 3236.4998" layerid="11" stroke-width="0"/><circle c_etype="pad_hole" cx="4478.8704" cy="3230.9882" r="1.8" layerid="11" stroke-width="0"/></g><g c_partid="part_pad" c_etype="pinpart" c_origin="4488.712,3230.988" layerid="11" plated="Y" c_shapetype="group" locked="0" c_rotation="90" c_width="11.0236" c_height="7.0866" c_shape="RECT" pasteexpansion="0" solderexpansion="0.2" before-id="gge687"><polygon points="4485.1687 3236.4998 4485.1687 3225.4762 4492.2553 3225.4762 4492.2553 3236.4998" layerid="8" stroke-width="0.4" c_etype="pad_outer"/><polygon points="4485.1687 3236.4998 4485.1687 3225.4762 4492.2553 3225.4762 4492.2553 3236.4998" layerid="7" stroke-width="0.4" c_etype="pad_outer"/><polygon c_etype="pad_shell" points="4485.1687 3236.4998 4485.1687 3225.4762 4492.2553 3225.4762 4492.2553 3236.4998" layerid="11" stroke-width="0"/><circle c_etype="pad_hole" cx="4488.7124" cy="3230.9882" r="1.8" layerid="11" stroke-width="0"/></g><g c_partid="part_pad" c_etype="pinpart" c_origin="4498.555,3230.988" layerid="11" plated="Y" c_shapetype="group" locked="0" c_rotation="90" c_width="11.0236" c_height="7.0866" c_shape="RECT" pasteexpansion="0" solderexpansion="0.2" before-id="gge702"><polygon points="4495.0117 3236.4998 4495.0117 3225.4762 4502.0983 3225.4762 4502.0983 3236.4998" layerid="8" stroke-width="0.4" c_etype="pad_outer"/><polygon points="4495.0117 3236.4998 4495.0117 3225.4762 4502.0983 3225.4762 4502.0983 3236.4998" layerid="7" stroke-width="0.4" c_etype="pad_outer"/><polygon c_etype="pad_shell" points="4495.0117 3236.4998 4495.0117 3225.4762 4502.0983 3225.4762 4502.0983 3236.4998" layerid="11" stroke-width="0"/><circle c_etype="pad_hole" cx="4498.5554" cy="3230.9882" r="1.8" layerid="11" stroke-width="0"/></g><g c_partid="part_pad" c_etype="pinpart" c_origin="4508.397,3230.988" layerid="11" plated="Y" c_shapetype="group" locked="0" c_rotation="90" c_width="11.0236" c_height="7.0866" c_shape="RECT" pasteexpansion="0" solderexpansion="0.2"><polygon points="4504.8537 3236.4998 4504.8537 3225.4762 4511.9403 3225.4762 4511.9403 3236.4998" layerid="8" stroke-width="0.4" c_etype="pad_outer"/><polygon points="4504.8537 3236.4998 4504.8537 3225.4762 4511.9403 3225.4762 4511.9403 3236.4998" layerid="7" stroke-width="0.4" c_etype="pad_outer"/><polygon c_etype="pad_shell" points="4504.8537 3236.4998 4504.8537 3225.4762 4511.9403 3225.4762 4511.9403 3236.4998" layerid="11" stroke-width="0"/><circle c_etype="pad_hole" cx="4508.3974" cy="3230.9882" r="1.8" layerid="11" stroke-width="0"/></g></g><g c_origin="4454,3170" c_para="package`RELAY MODULE HW-279 2 RELAYS`Contributor`Haramu4a`link``BOM_Manufacturer``BOM_Manufacturer Part`Relay Module hw-279 2 relays`BOM_Supplier Part``BOM_Supplier``spicePre`U`spiceSymbolName`Relay Module 1 Channel`" c_partid="part_lib_gge3f3b07052589ea6c" locked="0" c_shapetype="group" c_etype="pinpart" layerid="1" uuid="ab7015f379c04fb4af176d5189c1f940" utime="1603160676" add_into_bom="yes" moved-from="1"><g c_partid="part_pcbtext" c_etype="" c_origin="4454,3112.25" c_rotation="0" c_mirror="0" locked="0" layerid="3" c_shapetype="group" display="none" before-id="gge1146" style=""><path c_fontsize="4.5" c_fontfamily="" c_text="Relay Module 1 Channel" d="M 4454 3107.71 L 4454 3112 M 4454 3107.71 L 4455.84 3107.71 L 4456.45 3107.91 L 4456.66 3108.12 L 4456.86 3108.53 L 4456.86 3108.94 L 4456.66 3109.35 L 4456.45 3109.55 L 4455.84 3109.75 L 4454 3109.75 M 4455.43 3109.75 L 4456.86 3112 M 4458.21 3110.37 L 4460.67 3110.37 L 4460.67 3109.96 L 4460.46 3109.55 L 4460.26 3109.35 L 4459.85 3109.14 L 4459.24 3109.14 L 4458.83 3109.35 L 4458.42 3109.75 L 4458.21 3110.37 L 4458.21 3110.78 L 4458.42 3111.39 L 4458.83 3111.8 L 4459.24 3112 L 4459.85 3112 L 4460.26 3111.8 L 4460.67 3111.39 M 4462.02 3107.71 L 4462.02 3112 M 4465.82 3109.14 L 4465.82 3112 M 4465.82 3109.75 L 4465.41 3109.35 L 4465 3109.14 L 4464.39 3109.14 L 4463.98 3109.35 L 4463.57 3109.75 L 4463.37 3110.37 L 4463.37 3110.78 L 4463.57 3111.39 L 4463.98 3111.8 L 4464.39 3112 L 4465 3112 L 4465.41 3111.8 L 4465.82 3111.39 M 4467.38 3109.14 L 4468.6 3112 M 4469.83 3109.14 L 4468.6 3112 L 4468.2 3112.82 L 4467.79 3113.23 L 4467.38 3113.44 L 4467.17 3113.44 M 4474.33 3107.71 L 4474.33 3112 M 4474.33 3107.71 L 4475.97 3112 M 4477.6 3107.71 L 4475.97 3112 M 4477.6 3107.71 L 4477.6 3112 M 4479.98 3109.14 L 4479.57 3109.35 L 4479.16 3109.75 L 4478.95 3110.37 L 4478.95 3110.78 L 4479.16 3111.39 L 4479.57 3111.8 L 4479.98 3112 L 4480.59 3112 L 4481 3111.8 L 4481.41 3111.39 L 4481.61 3110.78 L 4481.61 3110.37 L 4481.41 3109.75 L 4481 3109.35 L 4480.59 3109.14 L 4479.98 3109.14 M 4485.42 3107.71 L 4485.42 3112 M 4485.42 3109.75 L 4485.01 3109.35 L 4484.6 3109.14 L 4483.99 3109.14 L 4483.58 3109.35 L 4483.17 3109.75 L 4482.96 3110.37 L 4482.96 3110.78 L 4483.17 3111.39 L 4483.58 3111.8 L 4483.99 3112 L 4484.6 3112 L 4485.01 3111.8 L 4485.42 3111.39 M 4486.77 3109.14 L 4486.77 3111.19 L 4486.97 3111.8 L 4487.38 3112 L 4488 3112 L 4488.4 3111.8 L 4489.02 3111.19 M 4489.02 3109.14 L 4489.02 3112 M 4490.37 3107.71 L 4490.37 3112 M 4491.72 3110.37 L 4494.17 3110.37 L 4494.17 3109.96 L 4493.97 3109.55 L 4493.76 3109.35 L 4493.35 3109.14 L 4492.74 3109.14 L 4492.33 3109.35 L 4491.92 3109.75 L 4491.72 3110.37 L 4491.72 3110.78 L 4491.92 3111.39 L 4492.33 3111.8 L 4492.74 3112 L 4493.35 3112 L 4493.76 3111.8 L 4494.17 3111.39 M 4498.67 3108.53 L 4499.08 3108.32 L 4499.7 3107.71 L 4499.7 3112 M 4507.26 3108.73 L 4507.06 3108.32 L 4506.65 3107.91 L 4506.24 3107.71 L 4505.42 3107.71 L 4505.01 3107.91 L 4504.6 3108.32 L 4504.4 3108.73 L 4504.2 3109.35 L 4504.2 3110.37 L 4504.4 3110.98 L 4504.6 3111.39 L 4505.01 3111.8 L 4505.42 3112 L 4506.24 3112 L 4506.65 3111.8 L 4507.06 3111.39 L 4507.26 3110.98 M 4508.61 3107.71 L 4508.61 3112 M 4508.61 3109.96 L 4509.23 3109.35 L 4509.64 3109.14 L 4510.25 3109.14 L 4510.66 3109.35 L 4510.86 3109.96 L 4510.86 3112 M 4514.67 3109.14 L 4514.67 3112 M 4514.67 3109.75 L 4514.26 3109.35 L 4513.85 3109.14 L 4513.24 3109.14 L 4512.83 3109.35 L 4512.42 3109.75 L 4512.21 3110.37 L 4512.21 3110.78 L 4512.42 3111.39 L 4512.83 3111.8 L 4513.24 3112 L 4513.85 3112 L 4514.26 3111.8 L 4514.67 3111.39 M 4516.02 3109.14 L 4516.02 3112 M 4516.02 3109.96 L 4516.63 3109.35 L 4517.04 3109.14 L 4517.65 3109.14 L 4518.06 3109.35 L 4518.27 3109.96 L 4518.27 3112 M 4519.62 3109.14 L 4519.62 3112 M 4519.62 3109.96 L 4520.23 3109.35 L 4520.64 3109.14 L 4521.25 3109.14 L 4521.66 3109.35 L 4521.87 3109.96 L 4521.87 3112 M 4523.22 3110.37 L 4525.67 3110.37 L 4525.67 3109.96 L 4525.47 3109.55 L 4525.26 3109.35 L 4524.85 3109.14 L 4524.24 3109.14 L 4523.83 3109.35 L 4523.42 3109.75 L 4523.22 3110.37 L 4523.22 3110.78 L 4523.42 3111.39 L 4523.83 3111.8 L 4524.24 3112 L 4524.85 3112 L 4525.26 3111.8 L 4525.67 3111.39 M 4527.02 3107.71 L 4527.02 3112" fill="none" stroke-width="0.6" c_note="note_name" style=""/></g><g c_partid="part_pcbtext" c_etype="" c_origin="4454,3119.25" c_rotation="0" c_mirror="0" locked="0" layerid="3" c_shapetype="group" before-id="gge1152" style=""><path c_fontsize="4.5" c_fontfamily="" c_text="U1" d="M 4454 3114.71 L 4454 3117.78 L 4454.2 3118.39 L 4454.61 3118.8 L 4455.23 3119 L 4455.64 3119 L 4456.25 3118.8 L 4456.66 3118.39 L 4456.86 3117.78 L 4456.86 3114.71 M 4458.21 3115.53 L 4458.62 3115.32 L 4459.24 3114.71 L 4459.24 3119" fill="none" stroke-width="0.6" c_note="note_pre" style=""/></g><polyline points="4417.599 3140.473 4492.402 3140.473 4492.402 3199.528 4417.599 3199.528 4417.599 3140.473" stroke-width="1" c_shapetype="line" stroke-linecap="round" fill="none" layerid="3" locked="0" before-id="gge1155"/><polyline points="4355 3121 4553.5 3121 4553.5 3220.5 4355 3220.5 4355 3121" stroke-width="1" c_shapetype="line" stroke-linecap="round" fill="none" layerid="3" locked="0" before-id="gge1158"/><polyline points="4524 3139.5 4544.5 3139.5 4544.5 3202.5 4524 3202.5 4524 3139.5" stroke-width="1" c_shapetype="line" stroke-linecap="round" fill="none" layerid="3" locked="0" before-id="gge1161"/><polyline points="4364.5 3138 4385 3138 4385 3204.5 4364.5 3204.5 4364.5 3138" stroke-width="1" c_shapetype="line" stroke-linecap="round" fill="none" layerid="3" locked="0" before-id="gge1254"/><g c_partid="part_pcbtext" c_etype="pinpart" c_origin="4424,3162" c_rotation="0" c_mirror="0" locked="0" layerid="3" c_shapetype="group" before-id="gge1260" style=""><path c_fontsize="8" c_fontfamily="" c_text="Relay Modul" d="M 4424 3153.93 L 4424 3161.56 M 4424 3153.93 L 4427.27 3153.93 L 4428.36 3154.29 L 4428.73 3154.65 L 4429.09 3155.38 L 4429.09 3156.11 L 4428.73 3156.84 L 4428.36 3157.2 L 4427.27 3157.56 L 4424 3157.56 M 4426.55 3157.56 L 4429.09 3161.56 M 4431.49 3158.65 L 4435.85 3158.65 L 4435.85 3157.93 L 4435.49 3157.2 L 4435.13 3156.84 L 4434.4 3156.47 L 4433.31 3156.47 L 4432.58 3156.84 L 4431.85 3157.56 L 4431.49 3158.65 L 4431.49 3159.38 L 4431.85 3160.47 L 4432.58 3161.2 L 4433.31 3161.56 L 4434.4 3161.56 L 4435.13 3161.2 L 4435.85 3160.47 M 4438.25 3153.93 L 4438.25 3161.56 M 4445.02 3156.47 L 4445.02 3161.56 M 4445.02 3157.56 L 4444.29 3156.84 L 4443.56 3156.47 L 4442.47 3156.47 L 4441.75 3156.84 L 4441.02 3157.56 L 4440.65 3158.65 L 4440.65 3159.38 L 4441.02 3160.47 L 4441.75 3161.2 L 4442.47 3161.56 L 4443.56 3161.56 L 4444.29 3161.2 L 4445.02 3160.47 M 4447.78 3156.47 L 4449.96 3161.56 M 4452.15 3156.47 L 4449.96 3161.56 L 4449.24 3163.02 L 4448.51 3163.75 L 4447.78 3164.11 L 4447.42 3164.11 M 4460.15 3153.93 L 4460.15 3161.56 M 4460.15 3153.93 L 4463.05 3161.56 M 4465.96 3153.93 L 4463.05 3161.56 M 4465.96 3153.93 L 4465.96 3161.56 M 4470.18 3156.47 L 4469.45 3156.84 L 4468.73 3157.56 L 4468.36 3158.65 L 4468.36 3159.38 L 4468.73 3160.47 L 4469.45 3161.2 L 4470.18 3161.56 L 4471.27 3161.56 L 4472 3161.2 L 4472.73 3160.47 L 4473.09 3159.38 L 4473.09 3158.65 L 4472.73 3157.56 L 4472 3156.84 L 4471.27 3156.47 L 4470.18 3156.47 M 4479.85 3153.93 L 4479.85 3161.56 M 4479.85 3157.56 L 4479.13 3156.84 L 4478.4 3156.47 L 4477.31 3156.47 L 4476.58 3156.84 L 4475.85 3157.56 L 4475.49 3158.65 L 4475.49 3159.38 L 4475.85 3160.47 L 4476.58 3161.2 L 4477.31 3161.56 L 4478.4 3161.56 L 4479.13 3161.2 L 4479.85 3160.47 M 4482.25 3156.47 L 4482.25 3160.11 L 4482.62 3161.2 L 4483.35 3161.56 L 4484.44 3161.56 L 4485.16 3161.2 L 4486.25 3160.11 M 4486.25 3156.47 L 4486.25 3161.56 M 4488.65 3153.93 L 4488.65 3161.56" fill="none" stroke-width="0.8"/></g><g c_partid="part_pcbtext" c_etype="pinpart" c_origin="4429.5,3185" c_rotation="0" c_mirror="0" locked="0" layerid="3" c_shapetype="group" before-id="gge1266" style=""><path c_fontsize="8" c_fontfamily="" c_text="1 Channel" d="M 4429.5 3178.38 L 4430.23 3178.02 L 4431.32 3176.93 L 4431.32 3184.56 M 4444.77 3178.75 L 4444.41 3178.02 L 4443.68 3177.29 L 4442.95 3176.93 L 4441.5 3176.93 L 4440.77 3177.29 L 4440.05 3178.02 L 4439.68 3178.75 L 4439.32 3179.84 L 4439.32 3181.65 L 4439.68 3182.75 L 4440.05 3183.47 L 4440.77 3184.2 L 4441.5 3184.56 L 4442.95 3184.56 L 4443.68 3184.2 L 4444.41 3183.47 L 4444.77 3182.75 M 4447.17 3176.93 L 4447.17 3184.56 M 4447.17 3180.93 L 4448.26 3179.84 L 4448.99 3179.47 L 4450.08 3179.47 L 4450.81 3179.84 L 4451.17 3180.93 L 4451.17 3184.56 M 4457.94 3179.47 L 4457.94 3184.56 M 4457.94 3180.56 L 4457.21 3179.84 L 4456.48 3179.47 L 4455.39 3179.47 L 4454.66 3179.84 L 4453.94 3180.56 L 4453.57 3181.65 L 4453.57 3182.38 L 4453.94 3183.47 L 4454.66 3184.2 L 4455.39 3184.56 L 4456.48 3184.56 L 4457.21 3184.2 L 4457.94 3183.47 M 4460.34 3179.47 L 4460.34 3184.56 M 4460.34 3180.93 L 4461.43 3179.84 L 4462.15 3179.47 L 4463.25 3179.47 L 4463.97 3179.84 L 4464.34 3180.93 L 4464.34 3184.56 M 4466.74 3179.47 L 4466.74 3184.56 M 4466.74 3180.93 L 4467.83 3179.84 L 4468.55 3179.47 L 4469.65 3179.47 L 4470.37 3179.84 L 4470.74 3180.93 L 4470.74 3184.56 M 4473.14 3181.65 L 4477.5 3181.65 L 4477.5 3180.93 L 4477.14 3180.2 L 4476.77 3179.84 L 4476.05 3179.47 L 4474.95 3179.47 L 4474.23 3179.84 L 4473.5 3180.56 L 4473.14 3181.65 L 4473.14 3182.38 L 4473.5 3183.47 L 4474.23 3184.2 L 4474.95 3184.56 L 4476.05 3184.56 L 4476.77 3184.2 L 4477.5 3183.47 M 4479.9 3176.93 L 4479.9 3184.56" fill="none" stroke-width="0.8"/></g><g c_partid="part_pcbtext" c_etype="pinpart" c_origin="4392,3153" c_rotation="0" c_mirror="0" locked="0" layerid="3" c_shapetype="group" before-id="gge1272" style=""><path c_fontsize="8" c_fontfamily="NotoSansCJKsc-DemiLight" c_text="VCC" d="M 4393.9 3152.25 L 4394.66 3152.25 L 4396.53 3146.39 L 4395.86 3146.39 L 4394.89 3149.63 C 4394.67 3150.32 4394.53 3150.87 4394.3 3151.56 L 4394.27 3151.56 C 4394.05 3150.87 4393.9 3150.32 4393.7 3149.63 L 4392.71 3146.39 L 4392.02 3146.39 Z  M 4399.44 3152.35 C 4400.2 3152.35 4400.77 3152.05 4401.22 3151.51 L 4400.86 3151.1 C 4400.47 3151.53 4400.04 3151.77 4399.47 3151.77 C 4398.32 3151.77 4397.6 3150.82 4397.6 3149.31 C 4397.6 3147.8 4398.35 3146.87 4399.5 3146.87 C 4400.01 3146.87 4400.41 3147.1 4400.71 3147.43 L 4401.08 3147 C 4400.74 3146.63 4400.2 3146.29 4399.49 3146.29 C 4398.01 3146.29 4396.92 3147.44 4396.92 3149.32 C 4396.92 3151.22 4397.99 3152.35 4399.44 3152.35 Z  M 4404.27 3152.35 C 4405.03 3152.35 4405.6 3152.05 4406.06 3151.51 L 4405.69 3151.1 C 4405.3 3151.53 4404.87 3151.77 4404.3 3151.77 C 4403.15 3151.77 4402.43 3150.82 4402.43 3149.31 C 4402.43 3147.8 4403.18 3146.87 4404.33 3146.87 C 4404.84 3146.87 4405.24 3147.1 4405.54 3147.43 L 4405.91 3147 C 4405.58 3146.63 4405.03 3146.29 4404.32 3146.29 C 4402.84 3146.29 4401.75 3147.44 4401.75 3149.32 C 4401.75 3151.22 4402.82 3152.35 4404.27 3152.35 Z " stroke="none" stroke-width="0.8"/></g><g c_partid="part_pcbtext" c_etype="pinpart" c_origin="4392,3174.5" c_rotation="0" c_mirror="0" locked="0" layerid="3" c_shapetype="group" before-id="gge1278" style=""><path c_fontsize="8" c_fontfamily="NotoSansCJKsc-DemiLight" c_text="GND" d="M 4394.58 3174.35 C 4395.36 3174.35 4396 3174.07 4396.37 3173.68 L 4396.37 3171.25 L 4394.48 3171.25 L 4394.48 3171.8 L 4395.76 3171.8 L 4395.76 3173.4 C 4395.52 3173.63 4395.08 3173.77 4394.64 3173.77 C 4393.37 3173.77 4392.65 3172.82 4392.65 3171.31 C 4392.65 3169.8 4393.43 3168.87 4394.64 3168.87 C 4395.25 3168.87 4395.64 3169.12 4395.93 3169.43 L 4396.3 3169 C 4395.96 3168.66 4395.44 3168.29 4394.63 3168.29 C 4393.08 3168.29 4391.97 3169.44 4391.97 3171.32 C 4391.97 3173.22 4393.05 3174.35 4394.58 3174.35 Z  M 4397.79 3174.25 L 4398.41 3174.25 L 4398.41 3171.04 C 4398.41 3170.43 4398.36 3169.84 4398.33 3169.26 L 4398.37 3169.26 L 4399.01 3170.46 L 4401.21 3174.25 L 4401.9 3174.25 L 4401.9 3168.39 L 4401.27 3168.39 L 4401.27 3171.56 C 4401.27 3172.16 4401.32 3172.8 4401.36 3173.39 L 4401.32 3173.39 L 4400.68 3172.19 L 4398.47 3168.39 L 4397.79 3168.39 Z  M 4403.53 3174.25 L 4405 3174.25 C 4406.77 3174.25 4407.71 3173.14 4407.71 3171.3 C 4407.71 3169.46 4406.77 3168.39 4404.97 3168.39 L 4403.53 3168.39 Z  M 4404.2 3173.71 L 4404.2 3168.94 L 4404.92 3168.94 C 4406.34 3168.94 4407.03 3169.8 4407.03 3171.3 C 4407.03 3172.79 4406.34 3173.71 4404.92 3173.71 Z " stroke="none" stroke-width="0.8"/></g><g c_partid="part_pcbtext" c_etype="pinpart" c_origin="4393.5,3195.5" c_rotation="0" c_mirror="0" locked="0" layerid="3" c_shapetype="group" before-id="gge1284" style=""><path c_fontsize="8" c_fontfamily="NotoSansCJKsc-DemiLight" c_text="IN" d="M 4393.82 3194.75 L 4394.48 3194.75 L 4394.48 3188.89 L 4393.82 3188.89 Z  M 4396.11 3194.75 L 4396.74 3194.75 L 4396.74 3191.54 C 4396.74 3190.93 4396.69 3190.34 4396.66 3189.76 L 4396.7 3189.76 L 4397.34 3190.96 L 4399.54 3194.75 L 4400.22 3194.75 L 4400.22 3188.89 L 4399.59 3188.89 L 4399.59 3192.06 C 4399.59 3192.66 4399.64 3193.3 4399.68 3193.89 L 4399.64 3193.89 L 4399.01 3192.69 L 4396.79 3188.89 L 4396.11 3188.89 Z " stroke="none" stroke-width="0.8"/></g><g c_partid="part_pcbtext" c_etype="pinpart" c_origin="4506,3152.5" c_rotation="0" c_mirror="0" locked="0" layerid="3" c_shapetype="group" before-id="gge1290" style=""><path c_fontsize="8" c_fontfamily="NotoSansCJKsc-DemiLight" c_text="NC" d="M 4506.32 3152.25 L 4506.94 3152.25 L 4506.94 3149.04 C 4506.94 3148.43 4506.89 3147.84 4506.86 3147.26 L 4506.9 3147.26 L 4507.54 3148.46 L 4509.74 3152.25 L 4510.43 3152.25 L 4510.43 3146.39 L 4509.8 3146.39 L 4509.8 3149.56 C 4509.8 3150.16 4509.84 3150.8 4509.88 3151.39 L 4509.84 3151.39 L 4509.21 3150.19 L 4507 3146.39 L 4506.32 3146.39 Z  M 4514.24 3152.35 C 4515 3152.35 4515.56 3152.05 4516.02 3151.51 L 4515.65 3151.1 C 4515.27 3151.53 4514.84 3151.77 4514.27 3151.77 C 4513.12 3151.77 4512.4 3150.82 4512.4 3149.31 C 4512.4 3147.8 4513.15 3146.87 4514.29 3146.87 C 4514.8 3146.87 4515.2 3147.1 4515.51 3147.43 L 4515.88 3147 C 4515.54 3146.63 4515 3146.29 4514.28 3146.29 C 4512.8 3146.29 4511.72 3147.44 4511.72 3149.32 C 4511.72 3151.22 4512.79 3152.35 4514.24 3152.35 Z " stroke="none" stroke-width="0.8"/></g><g c_partid="part_pcbtext" c_etype="pinpart" c_origin="4503,3174" c_rotation="0" c_mirror="0" locked="0" layerid="3" c_shapetype="group" before-id="gge1296" style=""><path c_fontsize="8" c_fontfamily="NotoSansCJKsc-DemiLight" c_text="COM" d="M 4505.49 3173.35 C 4506.25 3173.35 4506.82 3173.05 4507.28 3172.51 L 4506.91 3172.1 C 4506.52 3172.53 4506.09 3172.77 4505.52 3172.77 C 4504.37 3172.77 4503.65 3171.82 4503.65 3170.31 C 4503.65 3168.8 4504.4 3167.87 4505.55 3167.87 C 4506.06 3167.87 4506.46 3168.1 4506.76 3168.43 L 4507.13 3168 C 4506.8 3167.63 4506.25 3167.29 4505.54 3167.29 C 4504.06 3167.29 4502.97 3168.44 4502.97 3170.32 C 4502.97 3172.22 4504.04 3173.35 4505.49 3173.35 Z  M 4510.28 3173.35 C 4511.73 3173.35 4512.76 3172.17 4512.76 3170.3 C 4512.76 3168.43 4511.73 3167.29 4510.28 3167.29 C 4508.83 3167.29 4507.8 3168.43 4507.8 3170.3 C 4507.8 3172.17 4508.83 3173.35 4510.28 3173.35 Z  M 4510.28 3172.77 C 4509.2 3172.77 4508.48 3171.8 4508.48 3170.3 C 4508.48 3168.8 4509.2 3167.87 4510.28 3167.87 C 4511.36 3167.87 4512.08 3168.8 4512.08 3170.3 C 4512.08 3171.8 4511.36 3172.77 4510.28 3172.77 Z  M 4514.04 3173.25 L 4514.64 3173.25 L 4514.64 3169.87 C 4514.64 3169.37 4514.6 3168.68 4514.56 3168.17 L 4514.6 3168.17 L 4515.06 3169.5 L 4516.21 3172.65 L 4516.67 3172.65 L 4517.81 3169.5 L 4518.28 3168.17 L 4518.31 3168.17 C 4518.28 3168.68 4518.23 3169.37 4518.23 3169.87 L 4518.23 3173.25 L 4518.84 3173.25 L 4518.84 3167.39 L 4518.03 3167.39 L 4516.88 3170.59 C 4516.75 3171.01 4516.62 3171.43 4516.48 3171.84 L 4516.44 3171.84 C 4516.29 3171.43 4516.16 3171.01 4516.01 3170.59 L 4514.86 3167.39 L 4514.04 3167.39 Z " stroke="none" stroke-width="0.8"/></g><g c_partid="part_pcbtext" c_etype="pinpart" c_origin="4504.5,3195" c_rotation="0" c_mirror="0" locked="0" layerid="3" c_shapetype="group" before-id="gge1164" style=""><path c_fontsize="8" c_fontfamily="NotoSansCJKsc-DemiLight" c_text="NO" d="M 4505.32 3194.25 L 4505.94 3194.25 L 4505.94 3191.04 C 4505.94 3190.43 4505.89 3189.84 4505.86 3189.26 L 4505.9 3189.26 L 4506.54 3190.46 L 4508.74 3194.25 L 4509.43 3194.25 L 4509.43 3188.39 L 4508.8 3188.39 L 4508.8 3191.56 C 4508.8 3192.16 4508.84 3192.8 4508.88 3193.39 L 4508.84 3193.39 L 4508.21 3192.19 L 4506 3188.39 L 4505.32 3188.39 Z  M 4513.19 3194.35 C 4514.64 3194.35 4515.67 3193.17 4515.67 3191.3 C 4515.67 3189.43 4514.64 3188.29 4513.19 3188.29 C 4511.74 3188.29 4510.72 3189.43 4510.72 3191.3 C 4510.72 3193.17 4511.74 3194.35 4513.19 3194.35 Z  M 4513.19 3193.77 C 4512.11 3193.77 4511.4 3192.8 4511.4 3191.3 C 4511.4 3189.8 4512.11 3188.87 4513.19 3188.87 C 4514.28 3188.87 4514.99 3189.8 4514.99 3191.3 C 4514.99 3192.8 4514.28 3193.77 4513.19 3193.77 Z " stroke="none" stroke-width="0.8"/></g><g c_partid="part_pad" c_etype="pinpart" c_origin="4534,3190.5" layerid="11" plated="Y" c_shapetype="group" locked="0" c_rotation="270" c_width="13.7795" c_height="13.7795" c_shape="ELLIPSE" pasteexpansion="0" solderexpansion="0.4" before-id="gge1179"><ellipse cx="4534" cy="3190.5" rx="7.289750000000001" ry="7.289750000000001" layerid="8" stroke-width="0" c_etype="pad_outer"/><ellipse cx="4534" cy="3190.5" rx="7.289750000000001" ry="7.289750000000001" layerid="7" stroke-width="0" c_etype="pad_outer"/><ellipse c_etype="pad_shell" cx="4534" cy="3190.5" rx="6.88975" ry="6.88975" layerid="11" stroke-width="0"/><circle c_etype="pad_hole" cx="4533.9999" cy="3190.4996" r="2.3622" layerid="11" stroke-width="0"/></g><g c_partid="part_pad" c_etype="pinpart" c_origin="4534,3170.5" layerid="11" plated="Y" c_shapetype="group" locked="0" c_rotation="270" c_width="13.7795" c_height="13.7795" c_shape="ELLIPSE" pasteexpansion="0" solderexpansion="0.4" before-id="gge1194"><ellipse cx="4534" cy="3170.5" rx="7.289750000000001" ry="7.289750000000001" layerid="8" stroke-width="0" c_etype="pad_outer"/><ellipse cx="4534" cy="3170.5" rx="7.289750000000001" ry="7.289750000000001" layerid="7" stroke-width="0" c_etype="pad_outer"/><ellipse c_etype="pad_shell" cx="4534" cy="3170.5" rx="6.88975" ry="6.88975" layerid="11" stroke-width="0"/><circle c_etype="pad_hole" cx="4533.9999" cy="3170.4996" r="2.3622" layerid="11" stroke-width="0"/></g><g c_partid="part_pad" c_etype="pinpart" c_origin="4534,3150.5" layerid="11" plated="Y" c_shapetype="group" locked="0" c_rotation="270" c_width="13.7795" c_height="13.7795" c_shape="ELLIPSE" pasteexpansion="0" solderexpansion="0.4" before-id="gge1209"><ellipse cx="4534" cy="3150.5" rx="7.289750000000001" ry="7.289750000000001" layerid="8" stroke-width="0" c_etype="pad_outer"/><ellipse cx="4534" cy="3150.5" rx="7.289750000000001" ry="7.289750000000001" layerid="7" stroke-width="0" c_etype="pad_outer"/><ellipse c_etype="pad_shell" cx="4534" cy="3150.5" rx="6.88975" ry="6.88975" layerid="11" stroke-width="0"/><circle c_etype="pad_hole" cx="4533.9999" cy="3150.4996" r="2.3622" layerid="11" stroke-width="0"/></g><g c_partid="part_pad" c_etype="pinpart" c_origin="4374.75,3150" layerid="11" plated="Y" c_shapetype="group" locked="0" c_rotation="270" c_width="13.7795" c_height="7.874" c_shape="RECT" pasteexpansion="0" solderexpansion="0.4" before-id="gge1224"><polygon points="4378.687 3143.1102 4378.687 3156.8897 4370.813 3156.8897 4370.813 3143.1102" layerid="8" stroke-width="0.8" c_etype="pad_outer"/><polygon points="4378.687 3143.1102 4378.687 3156.8897 4370.813 3156.8897 4370.813 3143.1102" layerid="7" stroke-width="0.8" c_etype="pad_outer"/><polygon c_etype="pad_shell" points="4378.687 3143.1102 4378.687 3156.8897 4370.813 3156.8897 4370.813 3143.1102" layerid="11" stroke-width="0"/><circle c_etype="pad_hole" cx="4374.75" cy="3150" r="2.3622" layerid="11" stroke-width="0"/></g><g c_partid="part_pad" c_etype="pinpart" c_origin="4374.75,3170.5" layerid="11" plated="Y" c_shapetype="group" locked="0" c_rotation="270" c_width="13.7795" c_height="7.874" c_shape="RECT" pasteexpansion="0" solderexpansion="0.4" before-id="gge1239"><polygon points="4378.687 3163.6102 4378.687 3177.3897 4370.813 3177.3897 4370.813 3163.6102" layerid="8" stroke-width="0.8" c_etype="pad_outer"/><polygon points="4378.687 3163.6102 4378.687 3177.3897 4370.813 3177.3897 4370.813 3163.6102" layerid="7" stroke-width="0.8" c_etype="pad_outer"/><polygon c_etype="pad_shell" points="4378.687 3163.6102 4378.687 3177.3897 4370.813 3177.3897 4370.813 3163.6102" layerid="11" stroke-width="0"/><circle c_etype="pad_hole" cx="4374.75" cy="3170.5" r="2.3622" layerid="11" stroke-width="0"/></g><g c_partid="part_pad" c_etype="pinpart" c_origin="4374.75,3191" layerid="11" plated="Y" c_shapetype="group" locked="0" c_rotation="270" c_width="13.7795" c_height="7.874" c_shape="RECT" pasteexpansion="0" solderexpansion="0.4"><polygon points="4378.687 3184.1102 4378.687 3197.8897 4370.813 3197.8897 4370.813 3184.1102" layerid="8" stroke-width="0.8" c_etype="pad_outer"/><polygon points="4378.687 3184.1102 4378.687 3197.8897 4370.813 3197.8897 4370.813 3184.1102" layerid="7" stroke-width="0.8" c_etype="pad_outer"/><polygon c_etype="pad_shell" points="4378.687 3184.1102 4378.687 3197.8897 4370.813 3197.8897 4370.813 3184.1102" layerid="11" stroke-width="0"/><circle c_etype="pad_hole" cx="4374.75" cy="3191" r="2.3622" layerid="11" stroke-width="0"/></g></g></g></g></svg>