M48
METRIC,LZ,000.000
;FILE_FORMAT=3:3
;TYPE=PLATED
;Layer: PTH_Through
;EasyEDA v6.5.23, 2023-05-29 03:48:35
;b1c44b26816341a292666476a3caf7de,51573694c6ad4d119dcc01f1d09fdc26,10
;Gerber Generator version 0.2
;Holesize 1 = 0.915 mm
T01C0.915
;Holesize 2 = 1.200 mm
T02C1.200
%
G05
G90
T01
X110086Y004953
X123086Y004953
X128651Y004953
X132715Y004826
X089053Y012951
X091553Y012951
X094053Y012951
X096553Y012951
X099053Y012951
X101553Y012951
X104053Y012951
X106553Y012951
X109053Y012951
X111553Y012951
X114053Y012951
X116553Y012951
X119053Y012951
X121553Y012951
X124053Y012951
X089053Y041151
X091553Y041151
X094053Y041151
X096553Y041151
X099053Y041151
X101553Y041151
X104053Y041151
X106553Y041151
X109053Y041151
X111553Y041151
X114053Y041151
X116553Y041151
X119053Y041151
X121553Y041151
X124053Y041151
T02
X130556Y051435
X130556Y056515
X130556Y061595
X090107Y061722
X090107Y056515
X090107Y051308
M30
