G04 Layer: TopSilkscreenLayer*
G04 EasyEDA v6.5.23, 2023-05-29 03:48:35*
G04 b1c44b26816341a292666476a3caf7de,51573694c6ad4d119dcc01f1d09fdc26,10*
G04 Gerber Generator version 0.2*
G04 Scale: 100 percent, Rotated: No, Reflected: No *
G04 Dimensions in millimeters *
G04 leading zeros omitted , absolute positions ,4 integer and 5 decimal *
%FSLAX45Y45*%
%MOMM*%

%ADD10C,0.1524*%
%ADD11C,0.2032*%
%ADD12C,0.2540*%

%LPD*%
G36*
X9639046Y6266434D02*
G01*
X9633508Y6266230D01*
X9628073Y6265570D01*
X9622840Y6264503D01*
X9617811Y6263030D01*
X9612985Y6261100D01*
X9608362Y6258814D01*
X9603994Y6256172D01*
X9599828Y6253073D01*
X9595916Y6249670D01*
X9592310Y6245860D01*
X9588957Y6241694D01*
X9585909Y6237173D01*
X9583166Y6232347D01*
X9580778Y6227165D01*
X9578695Y6221628D01*
X9576968Y6215837D01*
X9575596Y6209690D01*
X9574580Y6203238D01*
X9573971Y6196482D01*
X9573768Y6189472D01*
X9573971Y6182360D01*
X9574580Y6175603D01*
X9575546Y6169101D01*
X9576866Y6162954D01*
X9578594Y6157112D01*
X9580626Y6151575D01*
X9583013Y6146393D01*
X9585706Y6141516D01*
X9588703Y6137046D01*
X9591954Y6132880D01*
X9595510Y6129121D01*
X9599320Y6125718D01*
X9603384Y6122670D01*
X9607702Y6120028D01*
X9612223Y6117742D01*
X9616998Y6115862D01*
X9621926Y6114440D01*
X9627057Y6113373D01*
X9632340Y6112713D01*
X9637776Y6112510D01*
X9644786Y6112865D01*
X9651390Y6113932D01*
X9657537Y6115659D01*
X9663328Y6118047D01*
X9668764Y6121044D01*
X9673793Y6124702D01*
X9678568Y6128969D01*
X9682988Y6133846D01*
X9673844Y6144260D01*
X9670084Y6140399D01*
X9666173Y6136995D01*
X9662160Y6134100D01*
X9657892Y6131661D01*
X9653473Y6129731D01*
X9648748Y6128359D01*
X9643821Y6127546D01*
X9638538Y6127242D01*
X9633204Y6127546D01*
X9628124Y6128359D01*
X9623298Y6129731D01*
X9618776Y6131610D01*
X9614560Y6133998D01*
X9610648Y6136894D01*
X9607092Y6140246D01*
X9603841Y6144107D01*
X9600946Y6148374D01*
X9598355Y6153099D01*
X9596170Y6158230D01*
X9594342Y6163767D01*
X9592919Y6169710D01*
X9591903Y6176010D01*
X9591243Y6182715D01*
X9591040Y6189726D01*
X9591243Y6196736D01*
X9591903Y6203391D01*
X9592970Y6209690D01*
X9594494Y6215583D01*
X9596374Y6221120D01*
X9598609Y6226200D01*
X9601250Y6230874D01*
X9604197Y6235090D01*
X9607550Y6238900D01*
X9611207Y6242202D01*
X9615170Y6245047D01*
X9619437Y6247434D01*
X9624009Y6249263D01*
X9628835Y6250635D01*
X9633966Y6251448D01*
X9639300Y6251702D01*
X9648494Y6250635D01*
X9656673Y6247739D01*
X9663836Y6243218D01*
X9670034Y6237478D01*
X9679432Y6248400D01*
X9675977Y6251854D01*
X9672015Y6255207D01*
X9667595Y6258255D01*
X9662769Y6260947D01*
X9657486Y6263182D01*
X9651746Y6264960D01*
X9645599Y6266027D01*
G37*
G36*
X9761728Y6266434D02*
G01*
X9756190Y6266230D01*
X9750755Y6265570D01*
X9745522Y6264503D01*
X9740493Y6263030D01*
X9735667Y6261100D01*
X9731044Y6258814D01*
X9726676Y6256172D01*
X9722510Y6253073D01*
X9718598Y6249670D01*
X9714992Y6245860D01*
X9711639Y6241694D01*
X9708591Y6237173D01*
X9705848Y6232347D01*
X9703460Y6227165D01*
X9701377Y6221628D01*
X9699650Y6215837D01*
X9698278Y6209690D01*
X9697262Y6203238D01*
X9696653Y6196482D01*
X9696450Y6189472D01*
X9696653Y6182360D01*
X9697262Y6175603D01*
X9698228Y6169101D01*
X9699548Y6162954D01*
X9701276Y6157112D01*
X9703308Y6151575D01*
X9705695Y6146393D01*
X9708388Y6141516D01*
X9711385Y6137046D01*
X9714636Y6132880D01*
X9718192Y6129121D01*
X9722002Y6125718D01*
X9726066Y6122670D01*
X9730384Y6120028D01*
X9734905Y6117742D01*
X9739680Y6115862D01*
X9744608Y6114440D01*
X9749739Y6113373D01*
X9755022Y6112713D01*
X9760458Y6112510D01*
X9767468Y6112865D01*
X9774072Y6113932D01*
X9780270Y6115659D01*
X9786061Y6118047D01*
X9791496Y6121044D01*
X9796627Y6124702D01*
X9801402Y6128969D01*
X9805924Y6133846D01*
X9796526Y6144260D01*
X9792766Y6140399D01*
X9788855Y6136995D01*
X9784842Y6134100D01*
X9780574Y6131661D01*
X9776155Y6129731D01*
X9771430Y6128359D01*
X9766503Y6127546D01*
X9761220Y6127242D01*
X9755886Y6127546D01*
X9750806Y6128359D01*
X9745980Y6129731D01*
X9741458Y6131610D01*
X9737242Y6133998D01*
X9733330Y6136894D01*
X9729774Y6140246D01*
X9726523Y6144107D01*
X9723628Y6148374D01*
X9721037Y6153099D01*
X9718852Y6158230D01*
X9717024Y6163767D01*
X9715601Y6169710D01*
X9714585Y6176010D01*
X9713925Y6182715D01*
X9713722Y6189726D01*
X9713925Y6196736D01*
X9714585Y6203391D01*
X9715652Y6209690D01*
X9717176Y6215583D01*
X9719056Y6221120D01*
X9721291Y6226200D01*
X9723932Y6230874D01*
X9726879Y6235090D01*
X9730232Y6238900D01*
X9733889Y6242202D01*
X9737852Y6245047D01*
X9742119Y6247434D01*
X9746691Y6249263D01*
X9751517Y6250635D01*
X9756648Y6251448D01*
X9761982Y6251702D01*
X9771176Y6250635D01*
X9779355Y6247739D01*
X9786518Y6243218D01*
X9792716Y6237478D01*
X9802114Y6248400D01*
X9798710Y6251854D01*
X9794798Y6255207D01*
X9790430Y6258255D01*
X9785553Y6260947D01*
X9780219Y6263182D01*
X9774478Y6264960D01*
X9768281Y6266027D01*
G37*
G36*
X9449308Y6263894D02*
G01*
X9497060Y6115050D01*
X9516364Y6115050D01*
X9563862Y6263894D01*
X9546844Y6263894D01*
X9509302Y6138976D01*
X9507220Y6132576D01*
X9506458Y6132576D01*
X9499041Y6157061D01*
X9491980Y6181598D01*
X9466834Y6263894D01*
G37*
G36*
X9515602Y5707634D02*
G01*
X9509760Y5707430D01*
X9504121Y5706770D01*
X9498685Y5705703D01*
X9493453Y5704230D01*
X9488424Y5702300D01*
X9483648Y5700014D01*
X9479076Y5697372D01*
X9474809Y5694273D01*
X9470796Y5690870D01*
X9467037Y5687060D01*
X9463633Y5682894D01*
X9460484Y5678373D01*
X9457690Y5673547D01*
X9455200Y5668365D01*
X9453067Y5662828D01*
X9451289Y5657037D01*
X9449866Y5650890D01*
X9448850Y5644438D01*
X9448241Y5637682D01*
X9448038Y5630672D01*
X9448241Y5623560D01*
X9448850Y5616803D01*
X9449816Y5610301D01*
X9451187Y5604154D01*
X9452914Y5598312D01*
X9454997Y5592775D01*
X9457436Y5587593D01*
X9460179Y5582716D01*
X9463227Y5578246D01*
X9466630Y5574080D01*
X9470288Y5570321D01*
X9474200Y5566918D01*
X9478416Y5563870D01*
X9482886Y5561228D01*
X9487560Y5558942D01*
X9492538Y5557062D01*
X9497669Y5555640D01*
X9503054Y5554573D01*
X9508591Y5553913D01*
X9514332Y5553710D01*
X9521596Y5554014D01*
X9528454Y5554980D01*
X9534956Y5556504D01*
X9540951Y5558485D01*
X9546488Y5560974D01*
X9551517Y5563870D01*
X9555937Y5567172D01*
X9559798Y5570728D01*
X9559798Y5632450D01*
X9511792Y5632450D01*
X9511792Y5618480D01*
X9544304Y5618480D01*
X9544304Y5577840D01*
X9538868Y5573928D01*
X9531959Y5570931D01*
X9524136Y5569102D01*
X9515856Y5568442D01*
X9509963Y5568746D01*
X9504426Y5569559D01*
X9499193Y5570931D01*
X9494367Y5572810D01*
X9489846Y5575198D01*
X9485680Y5578094D01*
X9481921Y5581446D01*
X9478467Y5585307D01*
X9475470Y5589574D01*
X9472777Y5594299D01*
X9470542Y5599430D01*
X9468662Y5604967D01*
X9467189Y5610910D01*
X9466173Y5617210D01*
X9465513Y5623915D01*
X9465310Y5630926D01*
X9465564Y5637936D01*
X9466224Y5644591D01*
X9467342Y5650890D01*
X9468866Y5656783D01*
X9470847Y5662320D01*
X9473184Y5667400D01*
X9475927Y5672074D01*
X9479076Y5676290D01*
X9482531Y5680100D01*
X9486341Y5683402D01*
X9490506Y5686247D01*
X9494977Y5688634D01*
X9499803Y5690463D01*
X9504883Y5691835D01*
X9510217Y5692648D01*
X9515856Y5692902D01*
X9526473Y5691784D01*
X9535312Y5688736D01*
X9542576Y5684215D01*
X9548622Y5678678D01*
X9558020Y5689600D01*
X9554565Y5692851D01*
X9550654Y5696051D01*
X9546234Y5699099D01*
X9541306Y5701842D01*
X9535769Y5704179D01*
X9529673Y5706008D01*
X9522968Y5707227D01*
G37*
G36*
X9595866Y5705094D02*
G01*
X9595866Y5556250D01*
X9611614Y5556250D01*
X9611563Y5643575D01*
X9610902Y5660694D01*
X9609582Y5682996D01*
X9610598Y5682996D01*
X9626854Y5652516D01*
X9682734Y5556250D01*
X9700260Y5556250D01*
X9700260Y5705094D01*
X9684258Y5705094D01*
X9684308Y5618835D01*
X9685375Y5595366D01*
X9686544Y5578094D01*
X9685528Y5578094D01*
X9669272Y5608574D01*
X9613138Y5705094D01*
G37*
G36*
X9741662Y5705094D02*
G01*
X9741662Y5691124D01*
X9776968Y5691124D01*
X9783521Y5690870D01*
X9789617Y5690108D01*
X9795306Y5688838D01*
X9800539Y5687110D01*
X9805365Y5684875D01*
X9809784Y5682183D01*
X9813747Y5679033D01*
X9817303Y5675426D01*
X9820402Y5671362D01*
X9823094Y5666892D01*
X9825380Y5661964D01*
X9827260Y5656630D01*
X9828682Y5650839D01*
X9829749Y5644692D01*
X9830358Y5638139D01*
X9830562Y5631180D01*
X9830358Y5624271D01*
X9829749Y5617667D01*
X9828682Y5611469D01*
X9827260Y5605627D01*
X9825380Y5600192D01*
X9823094Y5595162D01*
X9820402Y5590540D01*
X9817303Y5586374D01*
X9813747Y5582615D01*
X9809784Y5579364D01*
X9805365Y5576519D01*
X9800539Y5574233D01*
X9795306Y5572353D01*
X9789617Y5571032D01*
X9783521Y5570220D01*
X9776968Y5569966D01*
X9758680Y5569966D01*
X9758680Y5691124D01*
X9741662Y5691124D01*
X9741662Y5556250D01*
X9779000Y5556250D01*
X9785604Y5556453D01*
X9791852Y5557062D01*
X9797796Y5558129D01*
X9803434Y5559552D01*
X9808718Y5561380D01*
X9813696Y5563616D01*
X9818319Y5566206D01*
X9822637Y5569153D01*
X9826650Y5572506D01*
X9830257Y5576214D01*
X9833559Y5580227D01*
X9836556Y5584596D01*
X9839198Y5589320D01*
X9841484Y5594400D01*
X9843414Y5599734D01*
X9844989Y5605424D01*
X9846208Y5611418D01*
X9847122Y5617718D01*
X9847630Y5624322D01*
X9847834Y5631180D01*
X9847630Y5638038D01*
X9847122Y5644591D01*
X9846208Y5650890D01*
X9844989Y5656834D01*
X9843363Y5662422D01*
X9841433Y5667756D01*
X9839147Y5672734D01*
X9836505Y5677408D01*
X9833508Y5681675D01*
X9830206Y5685688D01*
X9826498Y5689295D01*
X9822484Y5692546D01*
X9818116Y5695442D01*
X9813442Y5697982D01*
X9808413Y5700115D01*
X9803028Y5701893D01*
X9797338Y5703265D01*
X9791293Y5704281D01*
X9784943Y5704890D01*
X9778238Y5705094D01*
G37*
G36*
X9495028Y5184394D02*
G01*
X9495028Y5035550D01*
X9511792Y5035550D01*
X9511792Y5184394D01*
G37*
G36*
X9553194Y5184394D02*
G01*
X9553194Y5035550D01*
X9569196Y5035550D01*
X9569145Y5122875D01*
X9568484Y5139994D01*
X9567164Y5162296D01*
X9568180Y5162296D01*
X9584436Y5131816D01*
X9640316Y5035550D01*
X9657588Y5035550D01*
X9657588Y5184394D01*
X9641586Y5184394D01*
X9641636Y5098135D01*
X9642703Y5074666D01*
X9643872Y5057394D01*
X9642856Y5057394D01*
X9626854Y5087874D01*
X9570466Y5184394D01*
G37*
G36*
X12554712Y6266434D02*
G01*
X12549174Y6266230D01*
X12543739Y6265570D01*
X12538557Y6264503D01*
X12533528Y6263030D01*
X12528702Y6261100D01*
X12524079Y6258814D01*
X12519710Y6256172D01*
X12515596Y6253073D01*
X12511684Y6249670D01*
X12508077Y6245860D01*
X12504775Y6241694D01*
X12501727Y6237173D01*
X12499035Y6232347D01*
X12496647Y6227165D01*
X12494564Y6221628D01*
X12492837Y6215837D01*
X12491466Y6209690D01*
X12490500Y6203238D01*
X12489891Y6196482D01*
X12489688Y6189472D01*
X12489891Y6182360D01*
X12490500Y6175603D01*
X12491466Y6169101D01*
X12492786Y6162954D01*
X12494514Y6157112D01*
X12496546Y6151575D01*
X12498933Y6146393D01*
X12501626Y6141516D01*
X12504623Y6137046D01*
X12507874Y6132880D01*
X12511430Y6129121D01*
X12515240Y6125718D01*
X12519304Y6122670D01*
X12523622Y6120028D01*
X12528143Y6117742D01*
X12532918Y6115862D01*
X12537846Y6114440D01*
X12542977Y6113373D01*
X12548260Y6112713D01*
X12553696Y6112510D01*
X12560706Y6112865D01*
X12567259Y6113932D01*
X12573406Y6115659D01*
X12579146Y6118047D01*
X12584582Y6121044D01*
X12589611Y6124702D01*
X12594386Y6128969D01*
X12598908Y6133846D01*
X12589510Y6144260D01*
X12585801Y6140399D01*
X12581991Y6136995D01*
X12577978Y6134100D01*
X12573812Y6131661D01*
X12569342Y6129731D01*
X12564668Y6128359D01*
X12559741Y6127546D01*
X12554458Y6127242D01*
X12549124Y6127546D01*
X12544044Y6128359D01*
X12539218Y6129731D01*
X12534696Y6131610D01*
X12530480Y6133998D01*
X12526568Y6136894D01*
X12523012Y6140246D01*
X12519761Y6144107D01*
X12516866Y6148374D01*
X12514275Y6153099D01*
X12512090Y6158230D01*
X12510262Y6163767D01*
X12508839Y6169710D01*
X12507823Y6176010D01*
X12507163Y6182715D01*
X12506960Y6189726D01*
X12507163Y6196736D01*
X12507823Y6203391D01*
X12508890Y6209690D01*
X12510363Y6215583D01*
X12512243Y6221120D01*
X12514529Y6226200D01*
X12517120Y6230874D01*
X12520117Y6235090D01*
X12523419Y6238900D01*
X12527076Y6242202D01*
X12530988Y6245047D01*
X12535255Y6247434D01*
X12539776Y6249263D01*
X12544602Y6250635D01*
X12549632Y6251448D01*
X12554966Y6251702D01*
X12564160Y6250635D01*
X12572390Y6247739D01*
X12579604Y6243218D01*
X12585954Y6237478D01*
X12595352Y6248400D01*
X12591897Y6251854D01*
X12587935Y6255207D01*
X12583515Y6258255D01*
X12578638Y6260947D01*
X12573355Y6263182D01*
X12567564Y6264960D01*
X12561366Y6266027D01*
G37*
G36*
X12352528Y6263894D02*
G01*
X12352528Y6115050D01*
X12368276Y6115050D01*
X12368225Y6202375D01*
X12367564Y6219494D01*
X12366244Y6241796D01*
X12367260Y6241796D01*
X12383516Y6211316D01*
X12439396Y6115050D01*
X12456922Y6115050D01*
X12456922Y6263894D01*
X12440920Y6263894D01*
X12440970Y6177635D01*
X12441275Y6165900D01*
X12442952Y6136894D01*
X12441936Y6136894D01*
X12425934Y6167374D01*
X12369800Y6263894D01*
G37*
G36*
X12332716Y5733034D02*
G01*
X12327178Y5732830D01*
X12321743Y5732170D01*
X12316510Y5731103D01*
X12311481Y5729630D01*
X12306655Y5727700D01*
X12302032Y5725414D01*
X12297664Y5722772D01*
X12293498Y5719673D01*
X12289586Y5716270D01*
X12285980Y5712460D01*
X12282627Y5708294D01*
X12279579Y5703773D01*
X12276836Y5698947D01*
X12274448Y5693765D01*
X12272365Y5688228D01*
X12270638Y5682437D01*
X12269266Y5676290D01*
X12268250Y5669838D01*
X12267641Y5663082D01*
X12267438Y5656072D01*
X12267641Y5648960D01*
X12268250Y5642203D01*
X12269216Y5635701D01*
X12270536Y5629554D01*
X12272264Y5623712D01*
X12274296Y5618175D01*
X12276683Y5612993D01*
X12279376Y5608116D01*
X12282373Y5603646D01*
X12285624Y5599480D01*
X12289180Y5595721D01*
X12292990Y5592318D01*
X12297054Y5589270D01*
X12301372Y5586628D01*
X12305893Y5584342D01*
X12310668Y5582462D01*
X12315596Y5581040D01*
X12320727Y5579973D01*
X12326010Y5579313D01*
X12331446Y5579110D01*
X12338456Y5579465D01*
X12345060Y5580532D01*
X12351258Y5582259D01*
X12357049Y5584647D01*
X12362484Y5587644D01*
X12367615Y5591302D01*
X12372390Y5595569D01*
X12376912Y5600446D01*
X12367514Y5610860D01*
X12363754Y5606999D01*
X12359843Y5603595D01*
X12355830Y5600700D01*
X12351562Y5598261D01*
X12347143Y5596331D01*
X12342418Y5594959D01*
X12337491Y5594146D01*
X12332208Y5593842D01*
X12326874Y5594146D01*
X12321794Y5594959D01*
X12316968Y5596331D01*
X12312446Y5598210D01*
X12308230Y5600598D01*
X12304318Y5603494D01*
X12300762Y5606846D01*
X12297511Y5610707D01*
X12294616Y5614974D01*
X12292025Y5619699D01*
X12289840Y5624830D01*
X12288012Y5630367D01*
X12286589Y5636310D01*
X12285573Y5642610D01*
X12284913Y5649315D01*
X12284710Y5656326D01*
X12284913Y5663336D01*
X12285573Y5669991D01*
X12286640Y5676290D01*
X12288164Y5682183D01*
X12290044Y5687720D01*
X12292279Y5692800D01*
X12294920Y5697474D01*
X12297867Y5701690D01*
X12301220Y5705500D01*
X12304877Y5708802D01*
X12308840Y5711647D01*
X12313107Y5714034D01*
X12317679Y5715863D01*
X12322505Y5717235D01*
X12327636Y5718048D01*
X12332970Y5718302D01*
X12342164Y5717235D01*
X12350343Y5714339D01*
X12357506Y5709818D01*
X12363704Y5704078D01*
X12373102Y5715000D01*
X12369698Y5718454D01*
X12365786Y5721807D01*
X12361418Y5724855D01*
X12356541Y5727547D01*
X12351207Y5729782D01*
X12345466Y5731560D01*
X12339269Y5732627D01*
G37*
G36*
X12453112Y5733034D02*
G01*
X12447676Y5732830D01*
X12442393Y5732170D01*
X12437313Y5731103D01*
X12432436Y5729630D01*
X12427712Y5727750D01*
X12423241Y5725515D01*
X12419025Y5722823D01*
X12415012Y5719826D01*
X12411303Y5716371D01*
X12407798Y5712612D01*
X12404598Y5708497D01*
X12401702Y5704027D01*
X12399060Y5699201D01*
X12396774Y5694019D01*
X12394793Y5688584D01*
X12393117Y5682792D01*
X12391847Y5676646D01*
X12390882Y5670245D01*
X12390323Y5663539D01*
X12390120Y5656580D01*
X12407392Y5656580D01*
X12407595Y5663539D01*
X12408255Y5670194D01*
X12409271Y5676442D01*
X12410694Y5682284D01*
X12412472Y5687771D01*
X12414605Y5692851D01*
X12417145Y5697524D01*
X12419939Y5701741D01*
X12423140Y5705500D01*
X12426594Y5708802D01*
X12430353Y5711647D01*
X12434417Y5714034D01*
X12438684Y5715863D01*
X12443256Y5717235D01*
X12448082Y5718048D01*
X12453112Y5718302D01*
X12458141Y5718048D01*
X12462967Y5717235D01*
X12467539Y5715863D01*
X12471806Y5714034D01*
X12475870Y5711647D01*
X12479629Y5708802D01*
X12483084Y5705500D01*
X12486284Y5701741D01*
X12489078Y5697524D01*
X12491618Y5692851D01*
X12493752Y5687771D01*
X12495530Y5682284D01*
X12496952Y5676442D01*
X12497968Y5670194D01*
X12498628Y5663539D01*
X12498832Y5656580D01*
X12498628Y5649620D01*
X12497968Y5642965D01*
X12496952Y5636666D01*
X12495530Y5630722D01*
X12493752Y5625134D01*
X12491618Y5620004D01*
X12489078Y5615228D01*
X12486284Y5610910D01*
X12483084Y5607050D01*
X12479629Y5603646D01*
X12475870Y5600700D01*
X12471806Y5598312D01*
X12467539Y5596382D01*
X12462967Y5594959D01*
X12458141Y5594146D01*
X12453112Y5593842D01*
X12448082Y5594146D01*
X12443256Y5594959D01*
X12438684Y5596382D01*
X12434417Y5598312D01*
X12430353Y5600700D01*
X12426594Y5603646D01*
X12423140Y5607050D01*
X12419939Y5610910D01*
X12417145Y5615228D01*
X12414605Y5620004D01*
X12412472Y5625134D01*
X12410694Y5630722D01*
X12409271Y5636666D01*
X12408255Y5642965D01*
X12407595Y5649620D01*
X12407392Y5656580D01*
X12390120Y5656580D01*
X12390323Y5649569D01*
X12390882Y5642864D01*
X12391847Y5636412D01*
X12393117Y5630265D01*
X12394793Y5624423D01*
X12396774Y5618886D01*
X12399060Y5613704D01*
X12401702Y5608777D01*
X12404598Y5604256D01*
X12407798Y5600039D01*
X12411303Y5596178D01*
X12415012Y5592724D01*
X12419025Y5589574D01*
X12423241Y5586882D01*
X12427712Y5584545D01*
X12432436Y5582615D01*
X12437313Y5581091D01*
X12442393Y5579973D01*
X12447676Y5579313D01*
X12453112Y5579110D01*
X12458547Y5579313D01*
X12463830Y5579973D01*
X12468910Y5581091D01*
X12473787Y5582615D01*
X12478512Y5584545D01*
X12482982Y5586882D01*
X12487198Y5589574D01*
X12491212Y5592724D01*
X12494920Y5596178D01*
X12498425Y5600039D01*
X12501626Y5604256D01*
X12504521Y5608777D01*
X12507163Y5613704D01*
X12509449Y5618886D01*
X12511430Y5624423D01*
X12513106Y5630265D01*
X12514376Y5636412D01*
X12515342Y5642864D01*
X12515900Y5649569D01*
X12516104Y5656580D01*
X12515900Y5663539D01*
X12515342Y5670245D01*
X12514376Y5676646D01*
X12513106Y5682792D01*
X12511430Y5688584D01*
X12509449Y5694019D01*
X12507163Y5699201D01*
X12504521Y5704027D01*
X12501626Y5708497D01*
X12498425Y5712612D01*
X12494920Y5716371D01*
X12491212Y5719826D01*
X12487198Y5722823D01*
X12482982Y5725515D01*
X12478512Y5727750D01*
X12473787Y5729630D01*
X12468910Y5731103D01*
X12463830Y5732170D01*
X12458547Y5732830D01*
G37*
G36*
X12548616Y5730494D02*
G01*
X12548616Y5581650D01*
X12563856Y5581650D01*
X12563805Y5672480D01*
X12563500Y5683351D01*
X12561824Y5710682D01*
X12562840Y5710682D01*
X12574524Y5676900D01*
X12603734Y5596890D01*
X12615418Y5596890D01*
X12644374Y5676900D01*
X12656312Y5710682D01*
X12657074Y5710682D01*
X12655245Y5677763D01*
X12655042Y5667502D01*
X12655042Y5581650D01*
X12670536Y5581650D01*
X12670536Y5730494D01*
X12649962Y5730494D01*
X12620752Y5649214D01*
X12610592Y5617464D01*
X12609576Y5617464D01*
X12598654Y5649214D01*
X12569444Y5730494D01*
G37*
G36*
X12527026Y5199634D02*
G01*
X12521590Y5199430D01*
X12516307Y5198770D01*
X12511227Y5197703D01*
X12506350Y5196230D01*
X12501676Y5194350D01*
X12497257Y5192115D01*
X12492990Y5189423D01*
X12489027Y5186426D01*
X12485319Y5182971D01*
X12481864Y5179212D01*
X12478664Y5175097D01*
X12475768Y5170627D01*
X12473178Y5165801D01*
X12470892Y5160619D01*
X12468910Y5155184D01*
X12467285Y5149392D01*
X12465964Y5143246D01*
X12465050Y5136845D01*
X12464491Y5130139D01*
X12464288Y5123180D01*
X12481560Y5123180D01*
X12481763Y5130139D01*
X12482372Y5136794D01*
X12483388Y5143042D01*
X12484811Y5148884D01*
X12486589Y5154371D01*
X12488722Y5159451D01*
X12491212Y5164124D01*
X12494006Y5168341D01*
X12497155Y5172100D01*
X12500610Y5175402D01*
X12504318Y5178247D01*
X12508331Y5180634D01*
X12512649Y5182463D01*
X12517221Y5183835D01*
X12521996Y5184648D01*
X12527026Y5184902D01*
X12532106Y5184648D01*
X12536932Y5183835D01*
X12541504Y5182463D01*
X12545872Y5180634D01*
X12549886Y5178247D01*
X12553645Y5175402D01*
X12557099Y5172100D01*
X12560249Y5168341D01*
X12563094Y5164124D01*
X12565583Y5159451D01*
X12567716Y5154371D01*
X12569494Y5148884D01*
X12570917Y5143042D01*
X12571933Y5136794D01*
X12572542Y5130139D01*
X12572746Y5123180D01*
X12572542Y5116220D01*
X12571933Y5109565D01*
X12570917Y5103266D01*
X12569494Y5097322D01*
X12567716Y5091734D01*
X12565583Y5086604D01*
X12563094Y5081828D01*
X12560249Y5077510D01*
X12557099Y5073650D01*
X12553645Y5070246D01*
X12549886Y5067300D01*
X12545872Y5064912D01*
X12541504Y5062982D01*
X12536932Y5061559D01*
X12532106Y5060746D01*
X12527026Y5060442D01*
X12521996Y5060746D01*
X12517221Y5061559D01*
X12512649Y5062982D01*
X12508331Y5064912D01*
X12504318Y5067300D01*
X12500610Y5070246D01*
X12497155Y5073650D01*
X12494006Y5077510D01*
X12491212Y5081828D01*
X12488722Y5086604D01*
X12486589Y5091734D01*
X12484811Y5097322D01*
X12483388Y5103266D01*
X12482372Y5109565D01*
X12481763Y5116220D01*
X12481560Y5123180D01*
X12464288Y5123180D01*
X12464491Y5116169D01*
X12465050Y5109464D01*
X12465964Y5103012D01*
X12467285Y5096865D01*
X12468910Y5091023D01*
X12470892Y5085486D01*
X12473178Y5080304D01*
X12475768Y5075377D01*
X12478664Y5070856D01*
X12481864Y5066639D01*
X12485319Y5062778D01*
X12489027Y5059324D01*
X12492990Y5056174D01*
X12497257Y5053482D01*
X12501676Y5051145D01*
X12506350Y5049215D01*
X12511227Y5047691D01*
X12516307Y5046573D01*
X12521590Y5045913D01*
X12527026Y5045710D01*
X12532461Y5045913D01*
X12537744Y5046573D01*
X12542824Y5047691D01*
X12547701Y5049215D01*
X12552426Y5051145D01*
X12556896Y5053482D01*
X12561112Y5056174D01*
X12565126Y5059324D01*
X12568834Y5062778D01*
X12572339Y5066639D01*
X12575540Y5070856D01*
X12578435Y5075377D01*
X12581077Y5080304D01*
X12583363Y5085486D01*
X12585344Y5091023D01*
X12587020Y5096865D01*
X12588290Y5103012D01*
X12589256Y5109464D01*
X12589814Y5116169D01*
X12590018Y5123180D01*
X12589814Y5130139D01*
X12589256Y5136845D01*
X12588290Y5143246D01*
X12587020Y5149392D01*
X12585344Y5155184D01*
X12583363Y5160619D01*
X12581077Y5165801D01*
X12578435Y5170627D01*
X12575540Y5175097D01*
X12572339Y5179212D01*
X12568834Y5182971D01*
X12565126Y5186426D01*
X12561112Y5189423D01*
X12556896Y5192115D01*
X12552426Y5194350D01*
X12547701Y5196230D01*
X12542824Y5197703D01*
X12537744Y5198770D01*
X12532461Y5199430D01*
G37*
G36*
X12327128Y5197094D02*
G01*
X12327128Y5048250D01*
X12342876Y5048250D01*
X12342825Y5135575D01*
X12342164Y5152694D01*
X12340844Y5174996D01*
X12341860Y5174996D01*
X12358116Y5144516D01*
X12413996Y5048250D01*
X12431522Y5048250D01*
X12431522Y5197094D01*
X12415520Y5197094D01*
X12415570Y5110835D01*
X12415875Y5099100D01*
X12417552Y5070094D01*
X12416536Y5070094D01*
X12400534Y5100574D01*
X12344400Y5197094D01*
G37*
D10*
X11658600Y763015D02*
G01*
X11658600Y685037D01*
X11663679Y669544D01*
X11674093Y659129D01*
X11689841Y654050D01*
X11700256Y654050D01*
X11715750Y659129D01*
X11726163Y669544D01*
X11731243Y685037D01*
X11731243Y763015D01*
X11770868Y737107D02*
G01*
X11770868Y742187D01*
X11775947Y752602D01*
X11781281Y757936D01*
X11791695Y763015D01*
X11812270Y763015D01*
X11822684Y757936D01*
X11828018Y752602D01*
X11833097Y742187D01*
X11833097Y731773D01*
X11828018Y721360D01*
X11817604Y705865D01*
X11765534Y654050D01*
X11838431Y654050D01*
X13068300Y966215D02*
G01*
X13068300Y888237D01*
X13073379Y872744D01*
X13083793Y862329D01*
X13099541Y857250D01*
X13109956Y857250D01*
X13125450Y862329D01*
X13135863Y872744D01*
X13140943Y888237D01*
X13140943Y966215D01*
X13185647Y966215D02*
G01*
X13242797Y966215D01*
X13211809Y924560D01*
X13227304Y924560D01*
X13237718Y919479D01*
X13242797Y914400D01*
X13248131Y898652D01*
X13248131Y888237D01*
X13242797Y872744D01*
X13232384Y862329D01*
X13216890Y857250D01*
X13201395Y857250D01*
X13185647Y862329D01*
X13180568Y867410D01*
X13175234Y877823D01*
X7724581Y2724500D02*
G01*
X7802559Y2724500D01*
X7818053Y2729580D01*
X7828467Y2739994D01*
X7833547Y2755742D01*
X7833547Y2766156D01*
X7828467Y2781650D01*
X7818053Y2792064D01*
X7802559Y2797144D01*
X7724581Y2797144D01*
X7724581Y2883504D02*
G01*
X7797225Y2831434D01*
X7797225Y2909412D01*
X7724581Y2883504D02*
G01*
X7833547Y2883504D01*
D11*
X11693852Y2483185D02*
G01*
X11693852Y2676987D01*
X11693852Y2483185D02*
G01*
X11573710Y2483185D01*
X11693852Y2575387D02*
G01*
X11619938Y2575387D01*
X11693852Y2676987D02*
G01*
X11573710Y2676987D01*
X11383464Y2510871D02*
G01*
X11402006Y2492329D01*
X11429692Y2483185D01*
X11466522Y2483185D01*
X11494462Y2492329D01*
X11512750Y2510871D01*
X11512750Y2529159D01*
X11503606Y2547701D01*
X11494462Y2557099D01*
X11475920Y2566243D01*
X11420548Y2584785D01*
X11402006Y2593929D01*
X11392862Y2603073D01*
X11383464Y2621615D01*
X11383464Y2649301D01*
X11402006Y2667843D01*
X11429692Y2676987D01*
X11466522Y2676987D01*
X11494462Y2667843D01*
X11512750Y2649301D01*
X11322504Y2483185D02*
G01*
X11322504Y2676987D01*
X11322504Y2483185D02*
G01*
X11239446Y2483185D01*
X11211760Y2492329D01*
X11202362Y2501473D01*
X11193218Y2520015D01*
X11193218Y2547701D01*
X11202362Y2566243D01*
X11211760Y2575387D01*
X11239446Y2584785D01*
X11322504Y2584785D01*
X11086030Y2483185D02*
G01*
X11113716Y2492329D01*
X11123114Y2510871D01*
X11123114Y2529159D01*
X11113716Y2547701D01*
X11095428Y2557099D01*
X11058344Y2566243D01*
X11030658Y2575387D01*
X11012116Y2593929D01*
X11002972Y2612471D01*
X11002972Y2640157D01*
X11012116Y2658699D01*
X11021514Y2667843D01*
X11049200Y2676987D01*
X11086030Y2676987D01*
X11113716Y2667843D01*
X11123114Y2658699D01*
X11132258Y2640157D01*
X11132258Y2612471D01*
X11123114Y2593929D01*
X11104572Y2575387D01*
X11076886Y2566243D01*
X11039802Y2557099D01*
X11021514Y2547701D01*
X11012116Y2529159D01*
X11012116Y2510871D01*
X11021514Y2492329D01*
X11049200Y2483185D01*
X11086030Y2483185D01*
X10932868Y2529159D02*
G01*
X10932868Y2520015D01*
X10923470Y2501473D01*
X10914326Y2492329D01*
X10895784Y2483185D01*
X10858954Y2483185D01*
X10840412Y2492329D01*
X10831268Y2501473D01*
X10821870Y2520015D01*
X10821870Y2538557D01*
X10831268Y2557099D01*
X10849556Y2584785D01*
X10942012Y2676987D01*
X10812726Y2676987D01*
X10641022Y2510871D02*
G01*
X10650166Y2492329D01*
X10677852Y2483185D01*
X10696394Y2483185D01*
X10724080Y2492329D01*
X10742622Y2520015D01*
X10751766Y2566243D01*
X10751766Y2612471D01*
X10742622Y2649301D01*
X10724080Y2667843D01*
X10696394Y2676987D01*
X10686996Y2676987D01*
X10659310Y2667843D01*
X10641022Y2649301D01*
X10631624Y2621615D01*
X10631624Y2612471D01*
X10641022Y2584785D01*
X10659310Y2566243D01*
X10686996Y2557099D01*
X10696394Y2557099D01*
X10724080Y2566243D01*
X10742622Y2584785D01*
X10751766Y2612471D01*
X10459920Y2510871D02*
G01*
X10469064Y2492329D01*
X10496750Y2483185D01*
X10515292Y2483185D01*
X10542978Y2492329D01*
X10561520Y2520015D01*
X10570664Y2566243D01*
X10570664Y2612471D01*
X10561520Y2649301D01*
X10542978Y2667843D01*
X10515292Y2676987D01*
X10506148Y2676987D01*
X10478462Y2667843D01*
X10459920Y2649301D01*
X10450522Y2621615D01*
X10450522Y2612471D01*
X10459920Y2584785D01*
X10478462Y2566243D01*
X10506148Y2557099D01*
X10515292Y2557099D01*
X10542978Y2566243D01*
X10561520Y2584785D01*
X10570664Y2612471D01*
X10389562Y2593929D02*
G01*
X10223446Y2593929D01*
X10162486Y2483185D02*
G01*
X10162486Y2676987D01*
X10162486Y2483185D02*
G01*
X10042344Y2483185D01*
X10162486Y2575387D02*
G01*
X10088572Y2575387D01*
X10162486Y2676987D02*
G01*
X10042344Y2676987D01*
X9981384Y2520015D02*
G01*
X9962842Y2510871D01*
X9935156Y2483185D01*
X9935156Y2676987D01*
X9865052Y2529159D02*
G01*
X9865052Y2520015D01*
X9855908Y2501473D01*
X9846510Y2492329D01*
X9828222Y2483185D01*
X9791138Y2483185D01*
X9772596Y2492329D01*
X9763452Y2501473D01*
X9754308Y2520015D01*
X9754308Y2538557D01*
X9763452Y2557099D01*
X9781994Y2584785D01*
X9874196Y2676987D01*
X9744910Y2676987D01*
X11693852Y2787985D02*
G01*
X11693852Y2981787D01*
X11693852Y2787985D02*
G01*
X11564566Y2981787D01*
X11564566Y2787985D02*
G01*
X11564566Y2981787D01*
X11457378Y2852501D02*
G01*
X11475920Y2861899D01*
X11494462Y2880187D01*
X11503606Y2907873D01*
X11503606Y2926415D01*
X11494462Y2954101D01*
X11475920Y2972643D01*
X11457378Y2981787D01*
X11429692Y2981787D01*
X11411150Y2972643D01*
X11392862Y2954101D01*
X11383464Y2926415D01*
X11383464Y2907873D01*
X11392862Y2880187D01*
X11411150Y2861899D01*
X11429692Y2852501D01*
X11457378Y2852501D01*
X11211760Y2787985D02*
G01*
X11211760Y2981787D01*
X11211760Y2880187D02*
G01*
X11230302Y2861899D01*
X11248590Y2852501D01*
X11276276Y2852501D01*
X11294818Y2861899D01*
X11313360Y2880187D01*
X11322504Y2907873D01*
X11322504Y2926415D01*
X11313360Y2954101D01*
X11294818Y2972643D01*
X11276276Y2981787D01*
X11248590Y2981787D01*
X11230302Y2972643D01*
X11211760Y2954101D01*
X11150800Y2907873D02*
G01*
X11039802Y2907873D01*
X11039802Y2889585D01*
X11049200Y2871043D01*
X11058344Y2861899D01*
X11076886Y2852501D01*
X11104572Y2852501D01*
X11123114Y2861899D01*
X11141402Y2880187D01*
X11150800Y2907873D01*
X11150800Y2926415D01*
X11141402Y2954101D01*
X11123114Y2972643D01*
X11104572Y2981787D01*
X11076886Y2981787D01*
X11058344Y2972643D01*
X11039802Y2954101D01*
X10978842Y2787985D02*
G01*
X10978842Y2981787D01*
X10978842Y2787985D02*
G01*
X10905182Y2981787D01*
X10831268Y2787985D02*
G01*
X10905182Y2981787D01*
X10831268Y2787985D02*
G01*
X10831268Y2981787D01*
X10631624Y2833959D02*
G01*
X10641022Y2815671D01*
X10659310Y2797129D01*
X10677852Y2787985D01*
X10714682Y2787985D01*
X10733224Y2797129D01*
X10751766Y2815671D01*
X10760910Y2833959D01*
X10770308Y2861899D01*
X10770308Y2907873D01*
X10760910Y2935559D01*
X10751766Y2954101D01*
X10733224Y2972643D01*
X10714682Y2981787D01*
X10677852Y2981787D01*
X10659310Y2972643D01*
X10641022Y2954101D01*
X10631624Y2935559D01*
X10570664Y2787985D02*
G01*
X10570664Y2926415D01*
X10561520Y2954101D01*
X10542978Y2972643D01*
X10515292Y2981787D01*
X10496750Y2981787D01*
X10469064Y2972643D01*
X10450522Y2954101D01*
X10441378Y2926415D01*
X10441378Y2787985D01*
X10238178Y2787985D02*
G01*
X10164264Y2981787D01*
X10090350Y2787985D02*
G01*
X10164264Y2981787D01*
X10011102Y2787985D02*
G01*
X9909502Y2787985D01*
X9964874Y2861899D01*
X9937188Y2861899D01*
X9918646Y2871043D01*
X9909502Y2880187D01*
X9900104Y2907873D01*
X9900104Y2926415D01*
X9909502Y2954101D01*
X9927790Y2972643D01*
X9955476Y2981787D01*
X9983162Y2981787D01*
X10011102Y2972643D01*
X10020246Y2963499D01*
X10029390Y2944957D01*
X13304453Y2470500D02*
G01*
X13442883Y2470500D01*
X13470569Y2479644D01*
X13489111Y2498186D01*
X13498255Y2525872D01*
X13498255Y2544414D01*
X13489111Y2572100D01*
X13470569Y2590642D01*
X13442883Y2599786D01*
X13304453Y2599786D01*
X13332139Y2790032D02*
G01*
X13313597Y2771490D01*
X13304453Y2743804D01*
X13304453Y2706974D01*
X13313597Y2679288D01*
X13332139Y2660746D01*
X13350427Y2660746D01*
X13368969Y2669890D01*
X13378367Y2679288D01*
X13387511Y2697830D01*
X13406053Y2753202D01*
X13415197Y2771490D01*
X13424341Y2780888D01*
X13442883Y2790032D01*
X13470569Y2790032D01*
X13489111Y2771490D01*
X13498255Y2743804D01*
X13498255Y2706974D01*
X13489111Y2679288D01*
X13470569Y2660746D01*
X13304453Y2850992D02*
G01*
X13498255Y2850992D01*
X13304453Y2850992D02*
G01*
X13304453Y2934050D01*
X13313597Y2961990D01*
X13322741Y2971134D01*
X13341283Y2980278D01*
X13359825Y2980278D01*
X13378367Y2971134D01*
X13387511Y2961990D01*
X13396655Y2934050D01*
X13396655Y2850992D02*
G01*
X13396655Y2934050D01*
X13406053Y2961990D01*
X13415197Y2971134D01*
X13433739Y2980278D01*
X13461425Y2980278D01*
X13479967Y2971134D01*
X13489111Y2961990D01*
X13498255Y2934050D01*
X13498255Y2850992D01*
D10*
X11023600Y7068565D02*
G01*
X11023600Y6990587D01*
X11028679Y6975094D01*
X11039093Y6964679D01*
X11054841Y6959600D01*
X11065256Y6959600D01*
X11080750Y6964679D01*
X11091163Y6975094D01*
X11096243Y6990587D01*
X11096243Y7068565D01*
X11130534Y7047737D02*
G01*
X11140947Y7053071D01*
X11156695Y7068565D01*
X11156695Y6959600D01*
D11*
X10261600Y6072378D02*
G01*
X10261600Y5878576D01*
X10261600Y6072378D02*
G01*
X10344658Y6072378D01*
X10372343Y6063234D01*
X10381741Y6054089D01*
X10390886Y6035547D01*
X10390886Y6017005D01*
X10381741Y5998463D01*
X10372343Y5989320D01*
X10344658Y5980176D01*
X10261600Y5980176D01*
X10326370Y5980176D02*
G01*
X10390886Y5878576D01*
X10451845Y5952489D02*
G01*
X10562590Y5952489D01*
X10562590Y5970778D01*
X10553445Y5989320D01*
X10544302Y5998463D01*
X10525759Y6007862D01*
X10498074Y6007862D01*
X10479531Y5998463D01*
X10460990Y5980176D01*
X10451845Y5952489D01*
X10451845Y5933947D01*
X10460990Y5906262D01*
X10479531Y5887720D01*
X10498074Y5878576D01*
X10525759Y5878576D01*
X10544302Y5887720D01*
X10562590Y5906262D01*
X10623550Y6072378D02*
G01*
X10623550Y5878576D01*
X10795508Y6007862D02*
G01*
X10795508Y5878576D01*
X10795508Y5980176D02*
G01*
X10776965Y5998463D01*
X10758424Y6007862D01*
X10730738Y6007862D01*
X10712450Y5998463D01*
X10693908Y5980176D01*
X10684509Y5952489D01*
X10684509Y5933947D01*
X10693908Y5906262D01*
X10712450Y5887720D01*
X10730738Y5878576D01*
X10758424Y5878576D01*
X10776965Y5887720D01*
X10795508Y5906262D01*
X10865611Y6007862D02*
G01*
X10920984Y5878576D01*
X10976609Y6007862D02*
G01*
X10920984Y5878576D01*
X10902695Y5841492D01*
X10884154Y5822950D01*
X10865611Y5813805D01*
X10856468Y5813805D01*
X11179809Y6072378D02*
G01*
X11179809Y5878576D01*
X11179809Y6072378D02*
G01*
X11253470Y5878576D01*
X11327384Y6072378D02*
G01*
X11253470Y5878576D01*
X11327384Y6072378D02*
G01*
X11327384Y5878576D01*
X11434572Y6007862D02*
G01*
X11416029Y5998463D01*
X11397741Y5980176D01*
X11388343Y5952489D01*
X11388343Y5933947D01*
X11397741Y5906262D01*
X11416029Y5887720D01*
X11434572Y5878576D01*
X11462258Y5878576D01*
X11480800Y5887720D01*
X11499341Y5906262D01*
X11508486Y5933947D01*
X11508486Y5952489D01*
X11499341Y5980176D01*
X11480800Y5998463D01*
X11462258Y6007862D01*
X11434572Y6007862D01*
X11680190Y6072378D02*
G01*
X11680190Y5878576D01*
X11680190Y5980176D02*
G01*
X11661902Y5998463D01*
X11643359Y6007862D01*
X11615674Y6007862D01*
X11597131Y5998463D01*
X11578590Y5980176D01*
X11569445Y5952489D01*
X11569445Y5933947D01*
X11578590Y5906262D01*
X11597131Y5887720D01*
X11615674Y5878576D01*
X11643359Y5878576D01*
X11661902Y5887720D01*
X11680190Y5906262D01*
X11741150Y6007862D02*
G01*
X11741150Y5915405D01*
X11750547Y5887720D01*
X11769090Y5878576D01*
X11796775Y5878576D01*
X11815063Y5887720D01*
X11842750Y5915405D01*
X11842750Y6007862D02*
G01*
X11842750Y5878576D01*
X11903709Y6072378D02*
G01*
X11903709Y5878576D01*
X10401300Y5451347D02*
G01*
X10419841Y5460492D01*
X10447527Y5488178D01*
X10447527Y5294376D01*
X10789158Y5441950D02*
G01*
X10780013Y5460492D01*
X10761472Y5479034D01*
X10742929Y5488178D01*
X10706100Y5488178D01*
X10687558Y5479034D01*
X10669270Y5460492D01*
X10659872Y5441950D01*
X10650727Y5414263D01*
X10650727Y5368289D01*
X10659872Y5340350D01*
X10669270Y5322062D01*
X10687558Y5303520D01*
X10706100Y5294376D01*
X10742929Y5294376D01*
X10761472Y5303520D01*
X10780013Y5322062D01*
X10789158Y5340350D01*
X10850118Y5488178D02*
G01*
X10850118Y5294376D01*
X10850118Y5386578D02*
G01*
X10877804Y5414263D01*
X10896345Y5423662D01*
X10924031Y5423662D01*
X10942574Y5414263D01*
X10951718Y5386578D01*
X10951718Y5294376D01*
X11123675Y5423662D02*
G01*
X11123675Y5294376D01*
X11123675Y5395976D02*
G01*
X11105134Y5414263D01*
X11086591Y5423662D01*
X11058906Y5423662D01*
X11040363Y5414263D01*
X11022075Y5395976D01*
X11012677Y5368289D01*
X11012677Y5349747D01*
X11022075Y5322062D01*
X11040363Y5303520D01*
X11058906Y5294376D01*
X11086591Y5294376D01*
X11105134Y5303520D01*
X11123675Y5322062D01*
X11184636Y5423662D02*
G01*
X11184636Y5294376D01*
X11184636Y5386578D02*
G01*
X11212322Y5414263D01*
X11230609Y5423662D01*
X11258550Y5423662D01*
X11276838Y5414263D01*
X11286236Y5386578D01*
X11286236Y5294376D01*
X11347195Y5423662D02*
G01*
X11347195Y5294376D01*
X11347195Y5386578D02*
G01*
X11374881Y5414263D01*
X11393170Y5423662D01*
X11421109Y5423662D01*
X11439397Y5414263D01*
X11448795Y5386578D01*
X11448795Y5294376D01*
X11509756Y5368289D02*
G01*
X11620500Y5368289D01*
X11620500Y5386578D01*
X11611356Y5405120D01*
X11601958Y5414263D01*
X11583670Y5423662D01*
X11555729Y5423662D01*
X11537441Y5414263D01*
X11518900Y5395976D01*
X11509756Y5368289D01*
X11509756Y5349747D01*
X11518900Y5322062D01*
X11537441Y5303520D01*
X11555729Y5294376D01*
X11583670Y5294376D01*
X11601958Y5303520D01*
X11620500Y5322062D01*
X11681459Y5488178D02*
G01*
X11681459Y5294376D01*
D12*
X11318595Y620293D02*
G01*
X11998604Y620293D01*
X11998604Y370281D01*
X11318595Y370281D01*
X11318595Y620293D01*
X7865297Y1187800D02*
G01*
X7865297Y4287794D01*
X13605291Y4287794D01*
X13605291Y1187800D01*
X7865297Y1187800D01*
X13211997Y2203800D02*
G01*
X13211997Y3283300D01*
X13872397Y3283300D01*
X13872397Y2203800D01*
X13211997Y2203800D01*
X10099014Y6414185D02*
G01*
X11999010Y6414185D01*
X11999010Y4914188D01*
X10099014Y4914188D01*
X10099014Y6414185D01*
X8509000Y6908800D02*
G01*
X13550900Y6908800D01*
X13550900Y4381500D01*
X8509000Y4381500D01*
X8509000Y6908800D01*
X12801600Y6438900D02*
G01*
X13322300Y6438900D01*
X13322300Y4838700D01*
X12801600Y4838700D01*
X12801600Y6438900D01*
X8750300Y6477000D02*
G01*
X9271000Y6477000D01*
X9271000Y4787900D01*
X8750300Y4787900D01*
X8750300Y6477000D01*
G75*
G01
X13385800Y495300D02*
G03X13385800Y495300I-317500J0D01*
G75*
G01
X8265312Y1475105D02*
G03X8265312Y1475105I-150012J0D01*
G75*
G01
X8265312Y3975100D02*
G03X8265312Y3975100I-150012J0D01*
G75*
G01
X13455294Y1475105D02*
G03X13455294Y1475105I-150012J0D01*
G75*
G01
X13455294Y3975100D02*
G03X13455294Y3975100I-150012J0D01*
M02*
