G04 Layer: BottomLayer*
G04 EasyEDA v6.5.23, 2023-05-29 03:48:35*
G04 b1c44b26816341a292666476a3caf7de,51573694c6ad4d119dcc01f1d09fdc26,10*
G04 Gerber Generator version 0.2*
G04 Scale: 100 percent, Rotated: No, Reflected: No *
G04 Dimensions in millimeters *
G04 leading zeros omitted , absolute positions ,4 integer and 5 decimal *
%FSLAX45Y45*%
%MOMM*%

%ADD10C,1.0000*%
%ADD11R,2.0000X2.0000*%
%ADD12R,1.8000X2.8000*%
%ADD13C,3.5000*%
%ADD14R,2.0000X3.5000*%

%LPD*%
G36*
X8894876Y6303467D02*
G01*
X8772398Y6222187D01*
X8772398Y6122212D01*
X8894876Y6040932D01*
G37*
G36*
X9126423Y5782767D02*
G01*
X9126423Y5520232D01*
X9232900Y5601512D01*
X9232900Y5701487D01*
G37*
G36*
X8894876Y5262067D02*
G01*
X8826500Y5180787D01*
X8826500Y5080812D01*
X8894876Y4999532D01*
G37*
G36*
X10908588Y595325D02*
G01*
X10758576Y545287D01*
X10758576Y445312D01*
X10908588Y395274D01*
G37*
G36*
X12208611Y595325D02*
G01*
X12078563Y545287D01*
X12078563Y445312D01*
X12208611Y395274D01*
G37*
G36*
X12408611Y595325D02*
G01*
X12408611Y395274D01*
X12558623Y445312D01*
X12558623Y545287D01*
G37*
G36*
X12765074Y595325D02*
G01*
X12615113Y545287D01*
X12615113Y445312D01*
X12765074Y395274D01*
G37*
G36*
X13221512Y732586D02*
G01*
X13171474Y582625D01*
X13371525Y582625D01*
X13321487Y732586D01*
G37*
G36*
X8829090Y1195070D02*
G01*
X8855303Y1065022D01*
X8955278Y1065022D01*
X8981490Y1195070D01*
G37*
G36*
X9355277Y1525320D02*
G01*
X9329115Y1395069D01*
X9481515Y1395069D01*
X9455302Y1525320D01*
G37*
G36*
X8829090Y4215079D02*
G01*
X8788146Y4165041D01*
X8788146Y4065066D01*
X8829090Y4015079D01*
G37*
D10*
X9010650Y5130800D02*
G01*
X8826500Y5130800D01*
X8699500Y5003800D01*
X8699500Y4203700D01*
X8788145Y4115054D01*
X8905240Y4115054D01*
X13271500Y482600D02*
G01*
X13271500Y1409700D01*
X12750800Y1930400D01*
X9810495Y1930400D01*
X9405365Y1525270D01*
X8905240Y1065021D02*
G01*
X9144761Y825500D01*
X11748261Y825500D01*
X12078461Y495300D01*
X9405365Y1525270D02*
G01*
X9405365Y1295145D01*
X8905240Y1295145D02*
G01*
X8905240Y1065021D01*
X12308586Y495300D02*
G01*
X12078461Y495300D01*
X12865100Y495300D02*
G01*
X12308586Y495300D01*
X11008613Y495300D02*
G01*
X8293100Y495300D01*
X8102600Y685800D01*
X8102600Y6350000D01*
X8382000Y6629400D01*
X9232900Y6629400D01*
X9423400Y6438900D01*
X9423400Y5842000D01*
X9232900Y5651500D01*
X9010650Y5651500D01*
X9010650Y6172200D02*
G01*
X8686800Y6172200D01*
X8369300Y5854700D01*
X8369300Y2561336D01*
X9405365Y1525270D01*
D11*
G01*
X11008588Y495300D03*
G01*
X12308611Y495300D03*
G01*
X12865100Y495300D03*
G01*
X13271500Y482600D03*
D12*
G01*
X8905290Y1295095D03*
G01*
X9155277Y1295095D03*
G01*
X9405289Y1295095D03*
G01*
X9655276Y1295095D03*
G01*
X9905288Y1295095D03*
G01*
X10155300Y1295095D03*
G01*
X10405287Y1295095D03*
G01*
X10655300Y1295095D03*
G01*
X10905286Y1295095D03*
G01*
X11155299Y1295095D03*
G01*
X11405285Y1295095D03*
G01*
X11655297Y1295095D03*
G01*
X11905284Y1295095D03*
G01*
X12155297Y1295095D03*
G01*
X12405283Y1295095D03*
G01*
X8905290Y4115104D03*
G01*
X9155277Y4115104D03*
G01*
X9405289Y4115104D03*
G01*
X9655276Y4115104D03*
G01*
X9905288Y4115104D03*
G01*
X10155300Y4115104D03*
G01*
X10405287Y4115104D03*
G01*
X10655300Y4115104D03*
G01*
X10905286Y4115104D03*
G01*
X11155299Y4115104D03*
G01*
X11405285Y4115104D03*
G01*
X11655297Y4115104D03*
G01*
X11905284Y4115104D03*
G01*
X12155297Y4115104D03*
G01*
X12405283Y4115104D03*
D13*
G01*
X13055600Y5143500D03*
G01*
X13055600Y5651500D03*
G01*
X13055600Y6159500D03*
D14*
G01*
X9010650Y6172200D03*
G01*
X9010650Y5651500D03*
G01*
X9010650Y5130800D03*
M02*
