G04 Layer: TopSolderMaskLayer*
G04 EasyEDA v6.5.23, 2023-05-29 03:48:35*
G04 b1c44b26816341a292666476a3caf7de,51573694c6ad4d119dcc01f1d09fdc26,10*
G04 Gerber Generator version 0.2*
G04 Scale: 100 percent, Rotated: No, Reflected: No *
G04 Dimensions in millimeters *
G04 leading zeros omitted , absolute positions ,4 integer and 5 decimal *
%FSLAX45Y45*%
%MOMM*%

%AMMACRO1*1,1,$1,$2,$3*1,1,$1,$4,$5*1,1,$1,0-$2,0-$3*1,1,$1,0-$4,0-$5*20,1,$1,$2,$3,$4,$5,0*20,1,$1,$4,$5,0-$2,0-$3,0*20,1,$1,0-$2,0-$3,0-$4,0-$5,0*20,1,$1,0-$4,0-$5,$2,$3,0*4,1,4,$2,$3,$4,$5,0-$2,0-$3,0-$4,0-$5,$2,$3,0*%
%ADD10MACRO1,0.2032X-1X1X1X1*%
%ADD11MACRO1,0.1016X-1X1X1X1*%
%ADD12MACRO1,0.1016X-0.9X-1.4X-0.9X1.4*%
%ADD13R,1.9016X2.9016*%
%ADD14C,3.7032*%
%ADD15MACRO1,0.2032X1X1.75X1X-1.75*%

%LPD*%
D10*
G01*
X11008588Y495300D03*
G01*
X12308611Y495300D03*
D11*
G01*
X12865100Y495300D03*
G01*
X13271500Y482600D03*
D12*
G01*
X8905290Y1295095D03*
D13*
G01*
X9155277Y1295095D03*
D12*
G01*
X9405289Y1295095D03*
G01*
X9655276Y1295095D03*
G01*
X9905288Y1295095D03*
G01*
X10155301Y1295095D03*
G01*
X10405287Y1295095D03*
G01*
X10655300Y1295095D03*
G01*
X10905286Y1295095D03*
G01*
X11155299Y1295095D03*
G01*
X11405285Y1295095D03*
G01*
X11655297Y1295095D03*
G01*
X11905284Y1295095D03*
G01*
X12155296Y1295095D03*
G01*
X12405283Y1295095D03*
G01*
X8905290Y4115104D03*
G01*
X9155277Y4115104D03*
G01*
X9405289Y4115104D03*
G01*
X9655276Y4115104D03*
G01*
X9905288Y4115104D03*
G01*
X10155301Y4115104D03*
G01*
X10405287Y4115104D03*
G01*
X10655300Y4115104D03*
G01*
X10905286Y4115104D03*
G01*
X11155299Y4115104D03*
G01*
X11405285Y4115104D03*
G01*
X11655297Y4115104D03*
G01*
X11905284Y4115104D03*
G01*
X12155296Y4115104D03*
G01*
X12405283Y4115104D03*
D14*
G01*
X13055600Y5143500D03*
G01*
X13055600Y5651500D03*
G01*
X13055600Y6159500D03*
D15*
G01*
X9010650Y6172201D03*
G01*
X9010650Y5651501D03*
G01*
X9010650Y5130801D03*
M02*
